<svg xmlns="http://www.w3.org/2000/svg" width="52" height="53" viewBox="0 0 52 53" fill="none">
  <path d="M46.3394 52.082L49.5854 45.981L51.4233 42.2872C51.4233 42.2872 52.071 41.2254 51.9935 39.7182C51.9344 38.5696 51.3124 37.1477 50.2747 36.144C49.7983 35.6831 49.1549 35.2117 48.3612 34.8978C48.1267 34.8051 47.8974 34.7304 47.6388 34.6715C47.42 34.6217 47.1774 34.5845 46.9224 34.5425C45.4803 34.3052 44.2775 34.8948 43.44 35.3389C42.0562 36.0726 41.0752 37.7132 40.8206 39.0447C40.512 40.6595 41.1116 41.9516 41.3013 42.3137C41.742 43.1551 46.3394 52.082 46.3394 52.082Z" fill="#DDEBED"/>
  <path d="M49.2246 40.1644C49.2246 40.9188 48.9254 41.6423 48.3929 42.1758C47.8604 42.7092 47.1381 43.0089 46.3849 43.0089C45.6318 43.009 44.9095 42.7093 44.3769 42.1758C43.8444 41.6424 43.5452 40.9189 43.5452 40.1644C43.5451 39.41 43.8443 38.6865 44.3768 38.153C44.9094 37.6195 45.6316 37.3198 46.3848 37.3198C47.1379 37.3197 47.8602 37.6194 48.3928 38.1528C48.9254 38.6863 49.2246 39.4099 49.2246 40.1644Z" fill="#00001C"/>
  <path d="M25.823 17.5939L29.0691 11.4929L30.9069 7.79909C30.9069 7.79909 31.5547 6.73734 31.4771 5.23014C31.418 4.08155 30.7961 2.65959 29.7584 1.65588C29.2819 1.195 28.6385 0.723574 27.8448 0.40975C27.6103 0.317029 27.381 0.242353 27.1224 0.183406C26.9036 0.133561 26.661 0.0963544 26.406 0.0543857C24.9639 -0.18291 23.7611 0.40669 22.9236 0.850791C21.5399 1.58452 20.5588 3.22508 20.3043 4.55654C19.9956 6.17132 20.5952 7.46352 20.7849 7.82561C21.2256 8.66698 25.823 17.5939 25.823 17.5939Z" fill="#DDEBED"/>
  <path d="M28.7083 5.67626C28.7083 6.43068 28.4091 7.15421 27.8765 7.68767C27.344 8.22114 26.6217 8.52084 25.8686 8.52085C25.1154 8.52086 24.3931 8.22118 23.8606 7.68773C23.328 7.15428 23.0288 6.43076 23.0288 5.67633C23.0288 4.92191 23.3279 4.19837 23.8605 3.6649C24.393 3.13142 25.1153 2.8317 25.8684 2.83167C26.6216 2.83163 27.3439 3.1313 27.8764 3.66473C28.409 4.19817 28.7082 4.92183 28.7083 5.67626Z" fill="#00001C"/>
  <path d="M14.5284 24.1464C14.7231 23.8101 14.6573 23.4081 14.3815 23.2484C14.1057 23.0888 13.7243 23.2319 13.5296 23.5681L8.69951 31.911C8.50485 32.2472 8.57063 32.6492 8.84644 32.8089C9.12225 32.9686 9.50364 32.8255 9.69831 32.4892L14.5284 24.1464Z" fill="#DDEBED"/>
  <path d="M20.9122 13.1406C21.1069 12.8044 21.0411 12.4024 20.7653 12.2427C20.4895 12.083 20.1081 12.2261 19.9134 12.5624L15.0833 20.9052C14.8886 21.2414 14.9544 21.6435 15.2302 21.8031C15.506 21.9628 15.8874 21.8197 16.0821 21.4835L20.9122 13.1406Z" fill="#DDEBED"/>
  <path d="M38.2509 23.6559C38.0562 23.3197 37.6747 23.1767 37.399 23.3364C37.1232 23.4962 37.0575 23.8982 37.2523 24.2344L42.0847 32.5759C42.2794 32.9121 42.6609 33.0551 42.9366 32.8954C43.2124 32.7356 43.2781 32.3336 43.0833 31.9974L38.2509 23.6559Z" fill="#DDEBED"/>
  <path d="M31.882 12.6415C31.6873 12.3053 31.3058 12.1622 31.0301 12.322C30.7543 12.4818 30.6886 12.8838 30.8834 13.22L35.7158 21.5615C35.9105 21.8977 36.292 22.0407 36.5677 21.881C36.8435 21.7212 36.9092 21.3192 36.7144 20.983L31.882 12.6415Z" fill="#DDEBED"/>
  <path d="M23.9189 40.8425C24.3074 40.8418 24.6218 40.5828 24.6212 40.2641C24.6206 39.9454 24.3052 39.6876 23.9166 39.6884L14.2765 39.7069C13.888 39.7076 13.5735 39.9666 13.5741 40.2853C13.5747 40.6039 13.8902 40.8617 14.2787 40.861L23.9189 40.8425Z" fill="#DDEBED"/>
  <path d="M36.642 40.8285C37.0305 40.8277 37.345 40.5688 37.3444 40.2501C37.3438 39.9314 37.0283 39.6736 36.6398 39.6744L26.9996 39.6928C26.6111 39.6936 26.2966 39.9525 26.2973 40.2712C26.2979 40.5899 26.6133 40.8477 27.0018 40.8469L36.642 40.8285Z" fill="#DDEBED"/>
  <path d="M5.60552 52.0872L8.85153 45.9862L10.6894 42.2924C10.6894 42.2924 11.3371 41.2306 11.2596 39.7235C11.2005 38.5749 10.5785 37.1529 9.54084 36.1492C9.06437 35.6883 8.42099 35.2169 7.6273 34.9031C7.3928 34.8104 7.16346 34.7357 6.90487 34.6767C6.68609 34.6269 6.44351 34.5897 6.18849 34.5477C4.74641 34.3104 3.54358 34.9 2.70607 35.3441C1.32234 36.0779 0.341271 37.7184 0.0867561 39.0499C-0.221915 40.6647 0.377722 41.9569 0.567387 42.319C1.0081 43.1603 5.60552 52.0872 5.60552 52.0872Z" fill="#DDEBED"/>
  <path d="M8.49074 40.1696C8.49074 40.924 8.19156 41.6475 7.65901 42.181C7.12647 42.7145 6.40418 43.0142 5.65105 43.0142C4.89791 43.0142 4.17562 42.7145 3.64306 42.181C3.1105 41.6476 2.8113 40.9241 2.81128 40.1697C2.81126 39.4152 3.11042 38.6917 3.64295 38.1582C4.17548 37.6247 4.89776 37.325 5.65089 37.325C6.40403 37.325 7.12633 37.6246 7.65891 38.158C8.19148 38.6915 8.4907 39.4151 8.49074 40.1696Z" fill="#00001C"/>
  <path d="M5.14337 41.7026C4.53268 41.4889 4.10059 40.9928 4.10059 40.5054C4.10059 40.1911 4.1559 40.1747 4.87616 40.2754C5.53103 40.3669 5.97027 40.3595 6.72172 40.2445C7.19484 40.1721 7.26665 40.2081 7.26665 40.5183C7.26665 40.7851 7.02066 41.203 6.73645 41.4191C6.28828 41.7599 5.63764 41.8757 5.14337 41.7026ZM4.57495 39.6035C4.37124 39.3614 4.41576 38.9527 4.66351 38.7904C5.06511 38.5272 5.37457 39.4023 4.97812 39.68C4.81804 39.7921 4.71766 39.7732 4.57495 39.6035ZM6.32924 39.6239C6.18048 39.4348 6.15317 39.2707 6.23249 39.0427C6.3522 38.6985 6.64734 38.6448 6.82918 38.9341C7.10632 39.375 6.63978 40.0187 6.32924 39.6239Z" fill="#DDEBED"/>
  <path d="M25.3392 7.23692C24.7285 7.02314 24.2964 6.52703 24.2964 6.03964C24.2964 5.72539 24.3517 5.70899 25.072 5.80963C25.7268 5.90113 26.1661 5.89378 26.9175 5.77877C27.3906 5.70634 27.4625 5.74244 27.4625 6.05262C27.4625 6.31937 27.2165 6.73729 26.9323 6.95339C26.4841 7.29416 25.8334 7.40995 25.3392 7.23692ZM24.7707 5.13774C24.567 4.89565 24.6116 4.48699 24.8593 4.32465C25.2609 4.06151 25.5704 4.93659 25.1739 5.21428C25.0138 5.32641 24.9135 5.30736 24.7707 5.13774ZM26.525 5.15823C26.3763 4.9691 26.349 4.80504 26.4283 4.577C26.548 4.23286 26.8431 4.17915 27.025 4.46841C27.3021 4.90926 26.8356 5.55301 26.525 5.15823Z" fill="#DDEBED"/>
  <path d="M45.9127 41.7026C45.302 41.4889 44.8699 40.9928 44.8699 40.5054C44.8699 40.1911 44.9252 40.1747 45.6455 40.2754C46.3003 40.3669 46.7396 40.3595 47.491 40.2445C47.9641 40.1721 48.036 40.2081 48.036 40.5183C48.036 40.7851 47.79 41.203 47.5058 41.4191C47.0576 41.7599 46.4069 41.8757 45.9127 41.7026ZM45.3442 39.6035C45.1405 39.3614 45.185 38.9527 45.4328 38.7904C45.8344 38.5272 46.1439 39.4023 45.7474 39.68C45.5873 39.7921 45.487 39.7732 45.3442 39.6035ZM47.0985 39.6239C46.9498 39.4348 46.9225 39.2707 47.0018 39.0427C47.1215 38.6985 47.4166 38.6448 47.5985 38.9341C47.8756 39.375 47.4091 40.0187 47.0985 39.6239Z" fill="#DDEBED"/>
</svg>