<?xml version="1.0" encoding="UTF-8" standalone="no"?>
<!-- Created with Inkscape (http://www.inkscape.org/) -->

<svg
   version="1.1"
   id="svg424"
   width="560"
   height="515"
   viewBox="0 0 560 515"
   sodipodi:docname="Section3 Image.svg"
   inkscape:version="1.2.1 (9c6d41e410, 2022-07-14)"
   xmlns:inkscape="http://www.inkscape.org/namespaces/inkscape"
   xmlns:sodipodi="http://sodipodi.sourceforge.net/DTD/sodipodi-0.dtd"
   xmlns="http://www.w3.org/2000/svg"
   xmlns:svg="http://www.w3.org/2000/svg">
  <defs
     id="defs428" />
  <sodipodi:namedview
     id="namedview426"
     pagecolor="#ffffff"
     bordercolor="#000000"
     borderopacity="0.25"
     inkscape:showpageshadow="2"
     inkscape:pageopacity="0.0"
     inkscape:pagecheckerboard="0"
     inkscape:deskcolor="#d1d1d1"
     showgrid="false"
     inkscape:zoom="0.54015296"
     inkscape:cx="33.323894"
     inkscape:cy="305.46903"
     inkscape:window-width="1366"
     inkscape:window-height="745"
     inkscape:window-x="-8"
     inkscape:window-y="-8"
     inkscape:window-maximized="1"
     inkscape:current-layer="g430" />
  <g
     inkscape:groupmode="layer"
     inkscape:label="Image"
     id="g430">
    <path
       style="fill:#000000;stroke-width:1"
       d="m 179.96796,486.59232 c 0,-22.90016 0,-22.90016 -4.64085,-23.49878 -2.55246,-0.32924 -7.21552,-1.42992 -10.3623,-2.44591 -3.14678,-1.01604 -8.13721,-3.30164 -11.08985,-5.07913 -2.95264,-1.7775 -7.90952,-5.93954 -11.01528,-9.24897 -5.64688,-6.01716 -5.64688,-6.01716 -28.72313,8.54893 -12.69193,8.01137 -23.610435,14.56611 -24.263315,14.56611 -0.812931,0 -0.736134,-0.42199 0.243572,-1.3388 0.786845,-0.73635 11.216443,-7.59851 23.176863,-15.24925 11.96044,-7.65074 21.94204,-14.22728 22.18136,-14.61452 0.23934,-0.38723 -0.67978,-3.46435 -2.04249,-6.83805 -1.3627,-3.3737 -2.92499,-9.00747 -3.47176,-12.51948 -0.69083,-4.43733 -0.67076,-8.55963 0.0658,-13.5118 0.58296,-3.91947 2.16815,-9.63225 3.52266,-12.69504 2.32294,-5.25261 2.36541,-5.64012 0.74795,-6.82692 -0.94313,-0.69201 -11.28668,-7.2841 -22.98563,-14.64909 -11.698963,-7.36497 -21.591325,-13.88344 -21.983013,-14.4855 -0.391651,-0.60206 -0.931955,-11.85602 -1.200651,-25.00881 -0.4885,-23.91417 -0.4885,-23.91417 -24.212167,-23.59878 -17.61446,0.23415 -24.093098,0.01 -25.158321,-0.87527 -1.039349,-0.86258 -1.434657,-3.31138 -1.434657,-8.8872 0,-4.23311 -0.289611,-7.69657 -0.643585,-7.69657 -0.353974,0 -4.860486,2.69338 -10.014471,5.98527 -5.153985,3.29188 -12.759269,8.17111 -16.9006339,10.84271 -4.1413456,2.67162 -8.0982871,4.66593 -8.79320308,4.43182 -0.69489715,-0.23413 3.79262618,-3.70099 9.97230098,-7.70412 6.179657,-4.00313 14.649275,-9.43093 18.821333,-12.06175 7.585594,-4.78336 7.585594,-4.78336 7.327682,-34.99814 C 36.834253,226.92049 36.834253,226.92049 18.759605,215.30329 8.8185467,208.91383 0.51493194,203.17604 0.30711868,202.55259 0.08018533,201.8718 0.53809364,201.65273 1.453684,202.00407 c 0.8384029,0.32174 8.0428764,4.72556 16.009913,9.78627 7.967055,5.06071 15.445869,9.7038 16.619617,10.31796 1.17373,0.61416 2.326309,1.11667 2.561267,1.11667 0.234977,0 0.630874,-3.51788 0.879776,-7.81751 0.2489,-4.29963 0.734505,-8.09949 1.079128,-8.44413 0.34464,-0.34462 11.518727,-0.67376 24.831321,-0.73141 24.2047,-0.1049 24.2047,-0.1049 24.6932,-24.20671 0.268696,-13.25605 0.708351,-24.31678 0.977038,-24.57941 0.268686,-0.26263 10.600694,-6.92509 22.960026,-14.80543 12.35933,-7.88036 22.79015,-14.63674 23.17959,-15.01418 0.38947,-0.37744 -0.41638,-3.47019 -1.79075,-6.87277 -1.37435,-3.40259 -2.94621,-9.05999 -3.49297,-12.572 -0.70019,-4.49743 -0.66866,-8.573806 0.10662,-13.786519 0.60541,-4.070587 2.18836,-9.776691 3.51764,-12.680228 1.32928,-2.903536 2.41688,-5.397529 2.41688,-5.542215 0,-0.144741 -9.56261,-6.306377 -21.25024,-13.692675 C 103.0641,55.093485 92.634406,48.23041 91.574604,47.228527 c -1.059793,-1.001884 -1.450189,-1.821601 -0.867555,-1.821601 0.582653,0 10.462801,5.977932 21.955871,13.284277 11.49307,7.306333 21.65027,13.688518 22.57155,14.182599 1.34211,0.719787 3.10097,-0.550901 8.84905,-6.39297 5.31151,-5.398369 9.02528,-8.178508 14.30485,-10.708684 4.13001,-1.97926 10.16383,-3.906636 14.33815,-4.580022 7.20732,-1.16267 7.20732,-1.16267 7.46864,-24.724165 0.16504,-14.882089 0.62124,-23.561493 1.23834,-23.561493 0.61708,0 1.07328,8.667852 1.23829,23.527045 0.26124,23.527026 0.26124,23.527026 6.83915,24.729951 3.61784,0.661605 9.85038,2.772057 13.8501,4.689875 5.39092,2.584884 9.11081,5.349581 14.37948,10.687094 3.909,3.960068 7.46864,7.200151 7.91029,7.200151 0.44165,0 10.87285,-6.375086 23.18043,-14.166836 12.30758,-7.79174 23.3795,-14.166822 24.60426,-14.166822 1.22476,0 10.23779,5.102501 20.02894,11.338875 9.79118,6.236378 18.31872,11.537115 18.95014,11.779394 0.79997,0.306981 1.28771,-1.973015 1.60887,-7.520735 0.31129,-5.377431 0.90798,-8.244301 1.83851,-8.833365 0.7577,-0.479668 11.81189,-0.878847 24.56486,-0.88706 23.1872,-0.01518 23.1872,-0.01518 23.44852,-24.196277 0.16523,-15.295287 0.62037,-24.18129 1.23836,-24.18129 0.618,0 1.07304,8.886003 1.23834,24.18129 0.26133,24.18131 0.26133,24.18131 21.61661,24.18131 11.74542,0 22.72924,0.274775 24.40849,0.610633 3.05321,0.610634 3.05321,0.610634 3.06816,7.571912 0.008,3.828713 0.39199,7.556268 0.85278,8.283437 0.61323,0.967761 1.32942,1.056899 2.67184,0.332539 1.00873,-0.544301 9.49174,-5.865618 18.85116,-11.825145 9.35941,-5.959534 17.71295,-10.812451 18.56342,-10.784262 1.13419,0.03756 0.93137,0.493268 -0.76099,1.709793 -1.26902,0.912195 -10.06222,6.642024 -19.54044,12.732938 -9.47823,6.090938 -17.79626,11.391901 -18.48451,11.779941 -0.95099,0.536175 -1.38213,7.418474 -1.79614,28.671696 -0.29962,15.3814 -0.17016,28.63542 0.28752,29.45341 0.45777,0.81797 9.61956,7.04336 20.35957,13.83416 10.73999,6.79081 20.07684,13.05071 20.74854,13.91091 0.89888,1.1511 1.22127,7.69292 1.22127,24.78149 0,23.21752 0,23.21752 3.66383,23.8302 2.01511,0.33698 6.08197,1.27432 9.03746,2.08299 2.9555,0.80868 7.79176,2.8255 10.74725,4.48182 2.95548,1.6563 8.45397,6.18141 12.21882,10.05577 6.84524,7.04429 6.84524,7.04429 29.75072,-7.49277 12.59801,-7.99538 23.56479,-14.53707 24.37064,-14.53707 0.998,0 1.14672,0.31844 0.46643,0.99873 -0.54929,0.54931 -6.68254,4.62874 -13.62944,9.0654 -6.94693,4.43669 -16.09805,10.25241 -20.33587,12.92385 -4.23782,2.67142 -8.77646,5.74142 -10.08588,6.82217 -2.38075,1.96503 -2.38075,1.96503 0.22912,9.73974 2.05045,6.10818 2.6143,9.66606 2.6305,16.59839 0.0171,6.97377 -0.51591,10.41551 -2.53848,16.41618 -1.40749,4.17588 -2.55909,7.98655 -2.55909,8.46815 0,0.48159 10.1258,7.35115 22.50183,15.26562 12.37599,7.91449 22.75202,14.79482 23.05785,15.28965 0.30582,0.49483 0.35261,1.10308 0.10395,1.35172 -0.24863,0.24862 -10.88465,-6.1557 -23.63564,-14.23182 -12.75096,-8.07614 -23.56123,-14.68387 -24.0228,-14.68387 -0.46155,0 -1.23392,0.7053 -1.71634,1.56734 -0.48241,0.86204 -3.39441,4.11568 -6.47109,7.23029 -3.47141,3.51423 -8.29338,7.03312 -12.70827,9.27401 -4.47402,2.27087 -9.70501,4.01897 -14.09493,4.7102 -6.98061,1.09919 -6.98061,1.09919 -6.99556,24.57574 -0.008,12.91209 -0.33798,23.94623 -0.73276,24.52031 -0.3948,0.57408 -9.2912,6.46657 -19.76976,13.09446 -10.47856,6.6279 -19.71141,12.61273 -20.51747,13.29966 -1.24088,1.05752 -1.46552,5.63377 -1.46552,29.85404 0,28.60507 0,28.60507 18.56342,40.52287 10.20988,6.55478 19.58274,12.66152 20.82853,13.57055 1.24584,0.909 2.03511,1.88277 1.75394,2.16394 -0.28117,0.28115 -2.61945,-0.72261 -5.1962,-2.23061 -2.57674,-1.50797 -11.46999,-7.05715 -19.76276,-12.33148 -8.29278,-5.27433 -15.42014,-9.58969 -15.83857,-9.58969 -0.41845,0 -0.88781,3.84704 -1.04309,8.54896 -0.28231,8.54895 -0.28231,8.54895 -24.4636,8.81026 -24.1813,0.26132 -24.1813,0.26132 -24.1813,23.6928 0,20.17662 -0.20357,23.43146 -1.46553,23.43146 -1.26199,0 -1.46553,-3.25674 -1.46553,-23.44853 0,-23.44853 0,-23.44853 -23.74165,-23.44853 -17.16303,0 -24.06651,-0.32488 -24.91406,-1.17245 -0.69775,-0.69773 -1.17243,-4.06005 -1.17243,-8.30468 0,-4.19115 -0.41045,-7.13225 -0.99536,-7.13225 -0.54747,0 -9.2786,5.27591 -19.40255,11.72426 -10.12393,6.44835 -19.16294,11.72427 -20.08668,11.72427 -0.92375,0 -12.02998,-6.5949 -24.6805,-14.65534 -12.65051,-8.06043 -23.49787,-14.64594 -24.1052,-14.63446 -0.60736,0.0114 -2.36235,1.79863 -3.9,3.97145 -1.53766,2.17284 -5.05494,5.7489 -7.81617,7.94678 -2.76126,2.19788 -7.70658,5.22335 -10.9896,6.72326 -3.28305,1.49992 -8.88872,3.23555 -12.45705,3.85694 -6.48787,1.12983 -6.48787,1.12983 -6.48787,23.98955 0,19.6684 -0.20459,22.85973 -1.46555,22.85973 -1.261,0 -1.46552,-3.19581 -1.46552,-22.90016 z M 292.65853,455.6355 c 10.29542,-6.51476 19.37842,-12.56008 20.18446,-13.43406 1.25746,-1.36343 1.39617,-5.67709 0.97702,-30.38314 -0.48851,-28.79411 -0.48851,-28.79411 -17.5864,-39.77856 -9.40384,-6.04144 -18.46824,-11.72818 -20.14313,-12.63719 -3.04524,-1.65276 -3.04524,-1.65276 -26.10561,12.91043 -13.13945,8.29789 -23.07297,15.19371 -23.08963,16.02876 -0.0152,0.80604 0.94674,3.88365 2.13957,6.83914 1.82359,4.5183 2.16753,7.23975 2.16086,17.09789 -0.008,10.49633 -0.28333,12.38789 -2.63715,18.06066 -2.20569,5.31582 -2.417,6.54862 -1.31175,7.65387 0.72458,0.72459 11.15722,7.62187 23.18362,15.32729 12.02639,7.70541 22.23585,14.04361 22.68769,14.08489 0.45184,0.0414 9.24504,-5.25523 19.54045,-11.76998 z M 180.1876,443.59969 c 0.19488,-11.96337 0.59849,-16.6143 1.46677,-16.90302 0.90838,-0.30205 1.26256,3.6925 1.46552,16.52895 0.26764,16.92724 0.26764,16.92724 3.5104,17.23842 1.78348,0.17111 5.90628,-0.5883 9.16172,-1.68769 3.25547,-1.09939 8.04927,-3.36585 10.65288,-5.03661 2.60363,-1.67073 7.16412,-5.66267 10.13445,-8.87097 2.97031,-3.20828 5.39947,-6.13796 5.39812,-6.51034 -9.4e-4,-0.37239 -5.47451,-4.12211 -12.16259,-8.33269 -6.68808,-4.21059 -12.67622,-8.27744 -13.30698,-9.03747 -0.7969,-0.9602 -0.81915,-1.38183 -0.0729,-1.38183 0.59067,0 6.63234,3.54419 13.42592,7.87599 6.79359,4.33181 12.91328,7.6606 13.59934,7.39736 0.68604,-0.26328 1.96678,-2.6446 2.84604,-5.29184 0.87926,-2.64726 2.02782,-7.47792 2.55233,-10.73483 0.63241,-3.92698 0.61631,-8.30033 -0.0478,-12.98329 -0.55081,-3.88391 -1.84874,-8.97695 -2.88424,-11.31786 -1.03549,-2.3409 -2.36844,-4.25621 -2.9621,-4.25621 -0.59367,0 -6.26321,3.2841 -12.59897,7.29799 -6.33578,4.01389 -12.24984,7.5782 -13.14238,7.92071 -0.89252,0.34251 -1.62278,0.21539 -1.62278,-0.28247 0,-0.49786 5.71954,-4.55026 12.7101,-9.0053 6.99055,-4.45507 12.95718,-8.49986 13.25914,-8.98846 0.30198,-0.48859 -1.0457,-3.06082 -2.99484,-5.71606 -1.97726,-2.6936 -6.43489,-6.74833 -10.0838,-9.17246 -3.59699,-2.38961 -9.27396,-5.26473 -12.61552,-6.38916 -3.34153,-1.12441 -7.62822,-2.04438 -9.52592,-2.04438 -3.45042,0 -3.45042,0 -3.45042,17.09788 0,14.54679 -0.21866,17.0979 -1.46554,17.0979 -1.24686,0 -1.46552,-2.55111 -1.46552,-17.0979 0,-17.09788 0,-17.09788 -3.80517,-17.09788 -2.09284,0 -6.6653,0.8834 -10.16097,1.96309 -3.4957,1.07973 -9.03049,3.74921 -12.29957,5.93222 -3.26909,2.18301 -7.70684,6.02596 -9.8617,8.53988 -2.15484,2.51394 -3.91393,5.01045 -3.90908,5.54782 0.006,0.53735 6.15723,4.90622 13.67199,9.70859 7.51477,4.80235 13.6632,9.08903 13.6632,9.52596 0,0.4369 -0.32973,0.77437 -0.73276,0.74991 -0.40303,-0.0245 -6.888,-3.95178 -14.41108,-8.72738 -12.38726,-7.86335 -13.79777,-8.52773 -14.944,-7.03893 -0.69611,0.90419 -2.17518,4.63585 -3.28678,8.29258 -1.63344,5.37329 -1.93949,8.46556 -1.59559,16.12086 0.31921,7.10534 1.02654,10.9371 2.83067,15.33441 1.56023,3.80284 2.94121,5.82331 3.93127,5.75162 0.83941,-0.0607 7.11763,-3.68795 13.95163,-8.06042 6.83398,-4.37248 12.83747,-7.94994 13.34103,-7.94994 0.50359,0 0.90873,0.32974 0.90028,0.73275 -0.01,0.40303 -3.85545,3.22069 -8.54895,6.26148 -4.69347,3.04078 -10.84371,6.92669 -13.66717,8.63533 -5.13358,3.10663 -5.13358,3.10663 -3.41958,6.05738 0.94269,1.6229 3.84865,4.88033 6.45769,7.23871 2.60902,2.35841 7.88495,5.83474 11.72426,7.7252 4.01471,1.97683 9.47123,3.77125 12.84272,4.22342 3.22416,0.43244 6.18079,0.52467 6.57027,0.20497 0.38948,-0.31971 0.82913,-8.00841 0.97702,-17.08599 z m -4.05683,-26.56758 c -1.11372,-1.41585 -2.02495,-3.42322 -2.02495,-4.46083 0,-1.03758 0.42286,-2.67662 0.93968,-3.64233 0.51683,-0.96569 2.30347,-2.32071 3.97031,-3.01113 2.67932,-1.10982 3.3349,-1.02914 5.65523,0.69582 1.87773,1.39593 2.71249,2.99341 2.93352,5.61378 0.20592,2.44109 -0.25189,4.28234 -1.37268,5.5208 -1.00012,1.10514 -2.97744,1.85822 -4.8789,1.85822 -2.29033,0 -3.77163,-0.73023 -5.22221,-2.57433 z m 187.79849,28.95393 c -0.11401,-7.2544 0.0152,-14.61869 0.28853,-16.36514 0.27276,-1.74642 0.90502,-3.17532 1.40504,-3.17532 0.51398,0 1.02556,7.1131 1.17701,16.36513 0.26787,16.36512 0.26787,16.36512 23.47217,16.62707 23.20427,0.26193 23.20427,0.26193 23.20427,-7.909 0,-6.57482 -0.334,-8.45591 -1.70979,-9.6297 -0.94039,-0.8023 -8.18989,-5.54585 -16.11,-10.54122 -7.92012,-4.99536 -14.89861,-9.68299 -15.50775,-10.41695 -0.77589,-0.93492 -0.7891,-1.33447 -0.044,-1.33447 0.58487,0 7.97327,4.3966 16.41867,9.77021 8.44541,5.37363 15.71476,9.77023 16.15412,9.77023 0.43936,0 0.79883,-11.87082 0.79883,-26.3796 0,-15.16922 -0.37732,-26.37959 -0.88787,-26.37959 -0.48834,0 -7.82644,4.39659 -16.30691,9.77021 -8.48046,5.37362 -15.8116,9.77022 -16.29144,9.77022 -0.47981,0 -0.72396,-0.44535 -0.54252,-0.98964 0.18136,-0.54433 7.80222,-5.73754 16.93505,-11.54049 16.60518,-10.55082 16.60518,-10.55082 16.88381,-20.52262 0.27863,-9.97175 0.27863,-9.97175 -22.96002,-9.70973 -23.23867,0.26203 -23.23867,0.26203 -23.50545,17.60416 -0.14683,9.53818 -0.63181,17.34215 -1.07793,17.34215 -0.4461,0 -1.09545,-3.36378 -1.44297,-7.47508 -0.34755,-4.11129 -0.63189,-12.02518 -0.63189,-17.5864 0,-10.11131 0,-10.11131 -23.44853,-10.11131 -23.44853,0 -23.44853,0 -23.44853,9.68021 0,9.68021 0,9.68021 17.09788,20.63511 9.40384,6.02519 17.09788,11.3416 17.09788,11.81426 0,0.47267 -0.24983,0.85938 -0.5552,0.85938 -0.30538,0 -7.57283,-4.3966 -16.14989,-9.77022 -8.57707,-5.37362 -16.02126,-9.77021 -16.54266,-9.77021 -0.58927,0 -0.94801,9.98269 -0.94801,26.37959 0,14.50878 0.37496,26.3796 0.83325,26.3796 0.45828,0 7.75559,-4.3966 16.21626,-9.77023 8.46066,-5.37361 15.81639,-9.77021 16.34606,-9.77021 0.52967,0 0.81649,0.42034 0.63736,0.9341 -0.17908,0.51376 -7.7999,5.69414 -16.93505,11.51199 -16.60937,10.57791 -16.60937,10.57791 -16.89954,17.78216 -0.15953,3.96233 -0.0603,7.80293 0.22042,8.53468 0.41494,1.08131 4.86029,1.2814 23.73867,1.06846 23.22814,-0.262 23.22814,-0.262 23.02074,-13.45179 z m -5.09782,-26.78569 c -0.677,-0.81574 -1.02666,-3.72138 -0.85239,-7.08341 0.29548,-5.70031 0.29548,-5.70031 7.13463,-5.70031 6.83916,0 6.83916,0 7.13407,6.26168 0.20479,4.34838 -0.0937,6.50821 -0.97704,7.06846 -0.69955,0.44372 -3.52631,0.81349 -6.28166,0.82173 -3.14428,0.01 -5.43716,-0.50007 -6.15761,-1.36815 z m -111.32622,-47.9951 c 11.4858,-7.36065 21.65265,-13.87626 22.59304,-14.47914 1.55126,-0.99452 1.70979,-3.29376 1.70979,-24.79818 0,-23.70202 0,-23.70202 -3.19647,-23.70202 -1.75806,0 -6.13832,-0.81575 -9.73391,-1.81279 -3.59558,-0.99702 -9.01616,-3.30524 -12.04572,-5.12936 -3.02956,-1.82412 -8.08696,-6.06447 -11.23864,-9.42298 -3.15168,-3.35852 -6.24788,-6.10639 -6.88045,-6.10639 -0.63256,0 -11.20729,6.42973 -23.49937,14.2883 -22.34926,14.28832 -22.34926,14.28832 -22.08761,37.34403 0.26165,23.05572 0.26165,23.05572 8.75705,25.22832 4.67246,1.19491 9.94838,2.90767 11.72427,3.80609 1.77588,0.89844 5.52125,3.38157 8.32306,5.51807 2.80179,2.13652 6.74646,6.05119 8.76592,8.69929 2.01947,2.64809 4.1789,4.62008 4.79877,4.38222 0.61988,-0.23786 10.5245,-6.45483 22.01027,-13.81546 z m -103.35449,5.90031 c 5.55398,-5.64479 8.88591,-8.10232 14.50537,-10.69867 4.01233,-1.85382 10.11919,-3.82878 13.57076,-4.38881 3.45157,-0.56002 6.61313,-1.02153 7.0257,-1.0256 0.41259,-0.004 0.63241,-10.61586 0.48851,-23.58177 -0.26162,-23.57441 -0.26162,-23.57441 -19.80206,-36.02869 -10.74726,-6.84986 -19.87019,-12.26302 -20.27322,-12.02925 -0.40301,0.23376 -0.73276,4.30899 -0.73276,9.05605 0,6.96906 -0.29758,8.74519 -1.54545,9.22403 -0.84999,0.32619 -11.62165,0.59306 -23.93705,0.59306 -22.391596,0 -22.391596,0 -22.391596,23.70385 0,23.70387 0,23.70387 22.227256,38.0217 12.22499,7.87481 22.54835,14.35482 22.94081,14.4 0.39246,0.0452 3.95814,-3.21546 7.92373,-7.2459 z m 169.66928,-2.30578 c 0,-2.61181 0.27959,-6.78857 0.62131,-9.28172 0.62131,-4.53295 0.62131,-4.53295 24.85642,-4.53295 13.32929,0 24.37095,-0.32975 24.53699,-0.73278 0.16599,-0.40301 0.0821,-11.01012 -0.18666,-23.57132 -0.48851,-22.83858 -0.48851,-22.83858 -18.07491,-34.0381 -9.67253,-6.15976 -20.11509,-12.76227 -23.20571,-14.67229 -5.61928,-3.47275 -5.61928,-3.47275 -11.46356,2.90524 -3.21435,3.50791 -8.05265,7.79512 -10.75176,9.52712 -2.6991,1.73201 -8.21899,4.20072 -12.26642,5.48602 -4.04743,1.28531 -8.66122,2.33691 -10.25283,2.33691 -2.89384,0 -2.89384,0 -2.89384,23.29709 0,20.9584 0.17167,23.44942 1.70979,24.81433 0.94038,0.83445 9.39618,6.39834 18.79066,12.3642 9.39447,5.96584 17.41826,10.847 17.83066,10.847 0.41239,0 0.74978,-2.13693 0.74978,-4.74875 z m 122.29787,-6.60764 c 9.84765,-6.24601 18.37013,-11.93036 18.93884,-12.63192 0.66497,-0.82031 1.01368,-9.38365 0.97702,-23.99295 -0.0569,-22.71739 -0.0569,-22.71739 -7.19037,-23.92166 -3.99826,-0.67499 -10.4178,-2.76404 -14.60646,-4.75322 -5.74127,-2.72651 -9.10328,-5.22744 -14.50766,-10.79196 -7.03457,-7.24302 -7.03457,-7.24302 -30.10972,7.48623 -23.07515,14.72927 -23.07515,14.72927 -22.81346,37.8196 0.26164,23.09034 0.26164,23.09034 24.44295,23.35164 24.18131,0.26134 24.18131,0.26134 24.18131,8.87463 0,4.73731 0.2931,8.90641 0.65134,9.26464 0.35825,0.35824 0.98436,0.65136 1.39137,0.65136 0.40702,0 8.79719,-5.11038 18.64484,-11.35639 z M 202.35734,299.06517 c 11.27017,-7.18788 21.63503,-13.90207 23.03301,-14.92042 2.5418,-1.85156 2.5418,-1.85156 0.0875,-7.40129 -1.3499,-3.05236 -2.85066,-8.75857 -3.33503,-12.68048 -0.53316,-4.31698 -0.52074,-9.8036 0.0315,-13.90437 0.50169,-3.72549 2.00106,-9.44108 3.33192,-12.70128 2.16157,-5.29527 2.25499,-6.0319 0.87563,-6.9047 -0.84925,-0.53735 -11.09021,-7.03877 -22.75768,-14.44761 -11.93979,-7.58174 -21.91757,-13.29241 -22.8239,-13.06302 -0.88566,0.22416 -9.67886,5.56879 -19.54044,11.87695 -9.8616,6.30816 -18.91939,12.08673 -20.12846,12.84129 -2.1943,1.36942 -2.19829,1.4214 -2.19829,28.59777 0,24.52508 0.16958,27.42194 1.70978,29.20242 0.94039,1.08709 10.45019,7.51086 21.13291,14.27505 10.68271,6.76418 19.57325,12.29852 19.75677,12.29852 0.18343,0 9.55468,-5.88098 20.82487,-13.06883 z m 181.13273,1.68078 c 9.77539,-6.26342 20.08166,-12.90107 22.90281,-14.75032 2.82114,-1.84928 5.12936,-3.61481 5.12936,-3.92343 0,-0.30859 -1.2003,-3.45339 -2.66737,-6.98839 -2.38335,-5.74295 -2.66548,-7.62364 -2.64974,-17.66306 0.0152,-9.34455 0.39575,-12.22246 2.26426,-17.09788 1.23567,-3.22418 2.45329,-6.53196 2.70584,-7.35062 0.3298,-1.06913 -5.72111,-5.40208 -21.47674,-15.37917 -12.06473,-7.63988 -22.63419,-14.15864 -23.48767,-14.48617 -0.95327,-0.36579 -5.04399,1.60006 -10.60618,5.09695 -4.97992,3.1308 -15.42945,9.80967 -23.22121,14.8419 -7.79174,5.03224 -14.07202,9.43943 -13.95614,9.79374 0.1159,0.35432 1.32493,3.87386 2.6868,7.8212 1.99544,5.78372 2.47124,9.00813 2.45092,16.60938 -0.0201,7.48994 -0.5224,10.84079 -2.43952,16.27154 -1.32786,3.76153 -2.52556,7.24763 -2.6616,7.7469 -0.13601,0.49925 5.4683,4.58756 12.45402,9.08514 6.98569,4.49758 17.50258,11.23355 23.37083,14.96887 5.86823,3.73531 10.84016,6.79147 11.04872,6.79147 0.20854,0 8.37723,-5.12462 18.15261,-11.38805 z M 272.16539,288.76877 c 0.0975,-12.64635 0.44472,-17.1196 1.35246,-17.42358 0.94706,-0.31713 1.22127,3.55782 1.22127,17.25886 0,9.7173 0.13905,17.66781 0.30906,17.66781 0.16997,0 2.87299,-0.47395 6.00666,-1.05325 3.13365,-0.5793 8.09609,-2.11399 11.02761,-3.41045 2.93149,-1.29644 7.50212,-3.95167 10.15692,-5.90048 2.65483,-1.94881 6.34654,-5.53343 8.20381,-7.9658 1.85724,-2.43239 3.37316,-4.68904 3.36869,-5.01478 -0.006,-0.32576 -5.93049,-4.3294 -13.16889,-8.89698 -7.23841,-4.56757 -13.17015,-8.63442 -13.18166,-9.03745 -0.0114,-0.40301 0.4401,-0.73276 1.00353,-0.73276 0.56346,0 6.20826,3.28409 12.54404,7.29798 6.33576,4.01391 12.25318,7.5795 13.1498,7.92357 1.24028,0.47593 2.07649,-0.39337 3.49585,-3.63415 1.02609,-2.34285 2.40155,-7.02104 3.05662,-10.39599 0.65506,-3.37494 0.95412,-8.65086 0.6646,-11.72426 -0.28952,-3.07342 -1.51039,-8.55573 -2.71301,-12.18292 -1.40254,-4.23015 -2.71091,-6.59491 -3.64882,-6.59491 -0.80423,0 -7.03067,3.51729 -13.83651,7.81619 -6.80587,4.2989 -12.6809,7.81618 -13.05565,7.81618 -0.37475,0 -0.68136,-0.39055 -0.68136,-0.86791 0,-0.47733 5.93541,-4.69518 13.18981,-9.37297 7.25438,-4.67779 13.18979,-8.96537 13.18979,-9.52795 0,-0.56257 -3.20994,-4.18115 -7.13321,-8.04129 -5.66226,-5.57116 -8.6393,-7.64542 -14.437,-10.05901 -4.0171,-1.67232 -9.58999,-3.34384 -12.3842,-3.71453 -5.08039,-0.67391 -5.08039,-0.67391 -5.34769,16.79103 -0.1656,10.81376 -0.63937,17.46496 -1.24432,17.46496 -0.60464,0 -1.0787,-6.60993 -1.24382,-17.34215 -0.26681,-17.34213 -0.26681,-17.34213 -3.56093,-17.34213 -1.81176,0 -6.29245,0.92608 -9.95709,2.05797 -3.66463,1.13189 -8.87695,3.47506 -11.58292,5.20705 -2.70596,1.73199 -6.88821,5.21546 -9.29385,7.74107 -2.40564,2.5256 -4.73802,5.24265 -5.18304,6.03789 -0.62557,1.11781 2.30678,3.46798 12.92282,10.35728 7.55261,4.90125 13.732,9.29372 13.732,9.76104 0,0.46729 -0.23754,0.84965 -0.52786,0.84965 -0.29033,0 -6.4887,-3.76759 -13.77418,-8.37244 -7.28545,-4.60483 -13.81973,-8.15237 -14.5206,-7.88344 -0.70087,0.26895 -2.27595,3.04731 -3.50015,6.17414 -1.81624,4.63896 -2.23725,7.66286 -2.28788,16.43239 -0.0521,9.0377 0.30689,11.72187 2.25735,16.87439 1.27568,3.36993 2.71162,6.36954 3.19101,6.66581 0.47938,0.29628 6.7753,-3.23034 13.99095,-7.83693 7.21566,-4.60659 13.58107,-8.37561 14.14536,-8.37561 0.56429,0 1.026,0.33057 1.026,0.73461 0,0.40404 -5.16599,4.01221 -11.48002,8.01815 -6.31399,4.00594 -12.46033,8.01831 -13.65849,8.91637 -2.17847,1.63285 -2.17847,1.63285 0.63126,5.51158 1.54537,2.13329 4.72398,5.43247 7.06361,7.33146 2.33962,1.899 6.6288,4.64505 9.53151,6.10233 2.90275,1.45729 7.95883,3.2408 11.23576,3.96336 3.27694,0.72257 6.77838,1.23092 7.78095,1.12966 1.69674,-0.1713 1.83196,-1.36153 1.95405,-17.19866 z m -4.19452,-27.08318 c -1.11373,-1.41588 -2.02496,-3.63416 -2.02496,-4.92952 0,-1.29536 1.07919,-3.43436 2.39817,-4.75334 1.31898,-1.31898 3.40735,-2.38417 4.64085,-2.3671 1.23348,0.0171 2.99482,0.60252 3.91409,1.30093 0.91923,0.69838 2.11741,2.44304 2.6626,3.877 0.62809,1.65194 0.65929,3.48036 0.0852,4.99035 -0.49835,1.31073 -1.77754,2.84954 -2.84266,3.41957 -1.06513,0.57004 -3.03273,1.03643 -4.37246,1.03643 -1.46782,0 -3.24063,-1.02308 -4.46084,-2.57432 z m 188.27268,26.75561 c 0.16086,-10.45493 0.64586,-17.34213 1.22126,-17.34213 0.58595,0 0.95449,6.79039 0.95449,17.5864 0,13.42547 0.28897,17.58298 1.22128,17.57196 0.6717,-0.008 3.97368,-0.6634 7.3377,-1.45654 3.36403,-0.79316 8.84486,-2.8194 12.17961,-4.50278 3.49894,-1.76625 8.65974,-5.65723 12.20274,-9.20025 3.37676,-3.37675 6.13566,-6.72985 6.1309,-7.45131 -0.006,-0.72145 -5.52208,-4.80996 -12.26073,-9.08556 -6.73861,-4.27561 -12.72398,-8.34246 -13.30075,-9.03746 -0.75461,-0.90925 -0.73272,-1.26362 0.0782,-1.26362 0.61971,0 6.70367,3.51728 13.51991,7.81616 6.81621,4.29892 12.92632,7.8162 13.57798,7.8162 0.65168,0 2.14779,-2.52805 3.32469,-5.61789 1.3832,-3.63142 2.31678,-8.77575 2.64031,-14.5487 0.40756,-7.2728 0.12235,-10.17499 -1.53672,-15.63235 -1.12046,-3.68585 -2.61609,-7.49176 -3.32362,-8.45762 -1.19436,-1.63042 -2.22618,-1.1585 -14.41906,6.5949 -7.22295,4.59306 -13.47876,8.35099 -13.90183,8.35099 -0.42304,0 -0.76918,-0.40948 -0.76918,-0.90996 0,-0.50047 4.73652,-3.90783 10.5256,-7.57192 5.7891,-3.66409 11.81734,-7.60352 13.39613,-8.7543 2.87049,-2.09233 2.87049,-2.09233 -0.0227,-6.28286 -1.59122,-2.3048 -5.74494,-6.28818 -9.23046,-8.85196 -3.48553,-2.56377 -8.69352,-5.56308 -11.57329,-6.66511 -2.87979,-1.10202 -7.61213,-2.28296 -10.51631,-2.62428 -5.2803,-0.62059 -5.2803,-0.62059 -5.2803,16.55414 0,10.12331 -0.3918,17.41689 -0.95429,17.76454 -0.60375,0.37312 -1.05238,-5.79684 -1.22129,-16.79597 -0.26698,-17.38576 -0.26698,-17.38576 -3.46263,-17.69343 -1.7576,-0.16922 -5.69576,0.41913 -8.75145,1.30744 -3.05571,0.88831 -7.72485,2.71423 -10.37586,4.05762 -2.65102,1.34335 -7.61597,5.17052 -11.03322,8.5048 -3.41727,3.33426 -6.21321,6.77172 -6.21321,7.63878 0,0.95281 5.21825,4.94136 13.1898,10.08159 7.25438,4.67779 13.1898,8.89564 13.1898,9.37297 0,0.47736 -0.23755,0.86791 -0.52787,0.86791 -0.29033,0 -6.4887,-3.76759 -13.77418,-8.37244 -7.28545,-4.60483 -13.84358,-8.14322 -14.57358,-7.8631 -0.73002,0.28012 -2.32223,3.71797 -3.53827,7.63967 -1.58474,5.11081 -2.20124,9.48245 -2.17669,15.43502 0.0206,5.0212 0.70831,10.51192 1.73912,13.88729 0.93768,3.0704 2.44771,6.46363 3.35562,7.54049 1.62453,1.92687 1.85649,1.82664 14.6174,-6.31534 7.13169,-4.55031 13.39684,-8.27328 13.92257,-8.27328 0.52573,0 0.95588,0.33387 0.95588,0.7419 0,0.40804 -5.52142,4.24094 -12.26983,8.51755 -6.74838,4.27663 -12.72734,8.32696 -13.28653,9.00076 -0.72949,0.87898 -0.40111,2.22112 1.16241,4.75095 1.19851,1.93925 4.40356,5.28421 7.12231,7.43327 2.71876,2.14906 6.94768,4.90178 9.39764,6.1172 2.44991,1.21542 6.43289,2.70484 8.85102,3.3098 2.41812,0.60498 5.27592,1.29079 6.35064,1.52406 1.07474,0.23327 2.83338,0.35748 3.90809,0.27603 1.8642,-0.14132 1.96632,-0.94539 2.22084,-17.49023 z m -3.00777,-25.26689 c -0.97019,-0.56438 -2.1991,-2.17068 -2.73094,-3.56952 -0.66424,-1.74707 -0.62104,-3.3785 0.13792,-5.21094 0.60771,-1.46719 2.35379,-3.18489 3.88017,-3.81714 1.52637,-0.63225 3.69178,-0.85863 4.81202,-0.50309 1.12023,0.35555 2.69145,1.91245 3.49159,3.45978 0.80017,1.54731 1.45483,3.43532 1.45483,4.19559 0,0.76025 -0.91124,2.54072 -2.02496,3.9566 -1.30506,1.65911 -2.95495,2.56375 -4.64086,2.54461 -1.43875,-0.0171 -3.40968,-0.49151 -4.37985,-1.05589 z M 88.34904,288.68357 c 0.16485,-10.24311 0.641896,-16.61193 1.244356,-16.61299 0.593137,-9.4e-4 1.168965,6.42975 1.465538,16.367 0.488509,16.36874 0.488509,16.36874 22.960026,16.36874 22.47151,0 22.47151,0 22.47151,-9.15507 0,-9.15507 0,-9.15507 -15.14385,-18.87235 -8.32911,-5.34449 -15.79967,-10.09486 -16.60123,-10.55633 -0.80159,-0.4615 -1.10293,-1.19355 -0.66969,-1.62679 0.43323,-0.43322 1.96837,-0.0928 3.41143,0.75675 1.44306,0.84944 8.28092,5.12198 15.19526,9.49452 6.91431,4.37255 12.95965,7.71021 13.43403,7.41701 0.47442,-0.29319 0.86256,-11.64518 0.86256,-25.22665 0,-13.58145 -0.25607,-24.94964 -0.56907,-25.26261 -0.31298,-0.31301 -7.57952,3.85162 -16.14786,9.25469 -8.56834,5.40307 -15.89571,9.50687 -16.28304,9.11954 -0.38732,-0.38732 0.17434,-1.35797 1.24828,-2.15698 1.0739,-0.79903 8.18115,-5.40037 15.79393,-10.22521 7.61275,-4.82482 14.33532,-9.36758 14.93901,-10.095 0.68211,-0.82187 0.99023,-4.59553 0.81396,-9.96812 -0.28372,-8.64556 -0.28372,-8.64556 -22.97687,-8.90776 -22.693162,-0.26222 -22.693162,-0.26222 -22.960029,16.85542 -0.165039,10.58249 -0.639888,17.11763 -1.243895,17.11763 -0.603978,0 -1.078902,-6.52909 -1.243828,-17.09968 -0.266782,-17.09968 -0.266782,-17.09968 -24.217956,-17.09968 -23.951165,0 -23.951165,0 -23.670243,9.01121 0.280922,9.01123 0.280922,9.01123 17.357993,19.96652 9.392394,6.02541 17.232998,11.42306 17.423568,11.99475 0.190569,0.57171 0.109265,1.03947 -0.180595,1.03947 -0.289927,0 -7.892654,-4.61643 -16.894973,-10.25873 -9.002326,-5.6423 -16.715643,-10.25874 -17.140697,-10.25874 -0.425072,0 -0.772844,12.31048 -0.772844,27.35662 0,15.04615 0.203261,27.35662 0.451706,27.35662 0.248447,0 7.770227,-4.61643 16.715076,-10.25874 8.944839,-5.6423 16.655446,-10.25872 17.134678,-10.25872 0.479233,0 0.860786,0.32975 0.847889,0.73276 -0.01329,0.40303 -7.926791,5.76994 -17.586411,11.92652 -17.562938,11.19374 -17.562938,11.19374 -17.562938,19.13334 0,4.36679 0.293101,8.23273 0.651343,8.59095 0.358243,0.35825 11.119531,0.65136 23.913965,0.65136 23.262629,0 23.262629,0 23.529967,-16.61127 z m -5.431969,-25.07502 c -0.358239,-0.35822 -0.644602,-3.1061 -0.636372,-6.10638 0.0075,-3.00026 0.378744,-6.02862 0.823378,-6.72966 0.554125,-0.87365 2.624018,-1.181 6.579956,-0.97702 5.771507,0.2976 5.771507,0.2976 6.058558,7.38101 0.28707,7.08341 0.28707,7.08341 -5.943551,7.08341 -3.426852,0 -6.523721,-0.29311 -6.881969,-0.65136 z M 235.93408,221.99649 c 4.59501,-4.62029 9.26433,-8.19793 13.40246,-10.269 3.49285,-1.7481 8.98861,-3.66088 12.21277,-4.25063 3.22418,-0.58973 6.85917,-1.25494 8.07777,-1.47823 2.21561,-0.40597 2.21561,-0.40597 1.95404,-24.02549 -0.26158,-23.61953 -0.26158,-23.61953 -23.70567,-38.52505 -12.89423,-8.198 -23.70071,-14.59572 -24.01439,-14.2171 -0.31367,0.37859 -2.23981,2.77993 -4.28028,5.33628 -2.04048,2.55634 -6.62209,6.56215 -10.18137,8.90177 -3.55928,2.33963 -8.5148,5.01695 -11.01225,5.94961 -2.49745,0.93266 -6.89406,1.98295 -9.77022,2.33399 -5.22941,0.63824 -5.22941,0.63824 -5.22941,24.56953 0,23.93128 0,23.93128 22.44843,38.34813 12.34663,7.92924 22.58292,14.41681 22.74736,14.41681 0.16446,0 3.47226,-3.19077 7.35076,-7.09062 z m 105.5185,-7.63588 c 12.19018,-7.7526 22.28101,-14.53532 22.42401,-15.07268 0.14304,-0.53737 0.1345,-11.19161 -0.0191,-23.67608 -0.27922,-22.69906 -0.27922,-22.69906 -24.91407,-22.96003 -24.63487,-0.26094 -24.63487,-0.26094 -24.9158,-9.2984 -0.1546,-4.97061 -0.44201,-9.03746 -0.63893,-9.03746 -0.19693,0 -8.8637,5.43738 -19.25952,12.08306 -18.90152,12.08306 -18.90152,12.08306 -19.16303,35.6138 -0.26152,23.53072 -0.26152,23.53072 3.41958,24.1359 2.02459,0.33284 6.53889,1.43376 10.03174,2.44648 3.49284,1.01272 9.2034,3.75404 12.69011,6.09182 3.48669,2.33779 8.10312,6.52204 10.25872,9.29834 2.79867,3.60449 4.49157,4.96531 5.92082,4.75935 1.10082,-0.15859 11.97531,-6.63148 24.1655,-14.3841 z m 75.41899,10.85344 c 1.47622,-2.13018 4.95325,-5.62374 7.72675,-7.76346 2.77348,-2.13975 7.94123,-5.24681 11.4839,-6.90463 3.54265,-1.65779 8.80868,-3.28097 11.70232,-3.60702 2.89363,-0.32607 6.03055,-0.98732 6.97094,-1.46949 1.55276,-0.79614 1.70978,-2.92317 1.70978,-23.16236 0,-20.01083 -0.17451,-22.43637 -1.70978,-23.76175 -0.94039,-0.81181 -9.74317,-6.59553 -19.56177,-12.8527 -9.81857,-6.25718 -18.28201,-11.37668 -18.80767,-11.37668 -0.55575,0 -0.95571,3.87725 -0.95571,9.26464 0,9.26464 0,9.26464 -24.18131,9.52596 -24.18131,0.26133 -24.18131,0.26133 -24.44292,23.33157 -0.21142,18.64277 -0.004,23.28457 1.0841,24.18707 0.74016,0.61428 10.92593,7.26951 22.63507,14.78938 11.70913,7.51989 21.82325,13.67253 22.47581,13.67253 0.65256,0 2.39429,-1.74287 3.87049,-3.87306 z M 158.69641,213.80233 c 9.81859,-6.25716 18.62137,-12.04088 19.56176,-12.85269 1.53924,-1.32881 1.70979,-3.79821 1.70979,-24.75456 0,-23.27848 0,-23.27848 -2.19829,-23.68011 -1.20908,-0.22088 -4.83627,-0.88582 -8.06045,-1.47762 -3.22416,-0.59178 -8.71992,-2.46492 -12.21277,-4.1625 -4.38266,-2.13005 -8.53434,-5.3182 -13.39738,-10.28809 -7.04671,-7.20156 -7.04671,-7.20156 -24.42556,3.89351 -9.55835,6.10226 -19.906866,12.72096 -22.996701,14.70818 -5.617875,3.61311 -5.617875,3.61311 -5.617875,26.8868 0,23.27371 0,23.27371 8.060431,23.90117 4.433245,0.34511 15.204905,0.63011 23.937055,0.63332 15.87661,0.006 15.87661,0.006 15.87661,8.63622 0,4.74671 0.29309,8.92348 0.65134,9.28172 0.35824,0.35824 0.78832,0.65134 0.95573,0.65134 0.16731,0 8.33774,-5.11952 18.15631,-11.37669 z m 135.75354,-70.3375 c 10.65353,-6.79008 19.37763,-12.83542 19.38687,-13.43406 0.01,-0.59862 0.022,-13.78918 0.0283,-29.31231 0.008,-15.523131 -0.11116,-28.342878 -0.26106,-28.488317 -0.14986,-0.145496 -9.0526,-5.873774 -19.78373,-12.729638 -10.7311,-6.855851 -19.96397,-12.457749 -20.51746,-12.448624 -0.5535,0.0095 -10.45905,6.061475 -22.01234,13.449692 -11.55327,7.388212 -21.94814,14.028223 -23.0997,14.755599 -2.09374,1.322492 -2.09374,1.322492 0.4512,7.96337 2.23146,5.822893 2.54497,8.085033 2.54527,18.365178 3.2e-4,10.50277 -0.27314,12.38339 -2.62482,18.05073 -1.64252,3.95834 -2.28064,6.67101 -1.70474,7.24689 0.50624,0.50624 10.71724,7.19645 22.69111,14.86712 11.97385,7.67067 22.61673,13.97217 23.65082,14.00332 1.03411,0.0311 10.5967,-5.49885 21.25025,-12.28895 z m 69.84948,-8.66036 c 0.0896,-8.59779 0.19943,-16.40177 0.24425,-17.34216 0.0448,-0.94038 0.511,-1.70977 1.03598,-1.70977 0.5754,0 1.06042,6.88721 1.22126,17.34214 0.26679,17.34215 0.26679,17.34215 23.22683,17.34215 22.96002,0 22.96002,0 23.20923,-9.28171 0.24922,-9.28171 0.24922,-9.28171 -16.53764,-20.02896 -9.23277,-5.911 -16.9919,-11.37541 -17.2425,-12.1432 -0.30374,-0.93058 0.97524,-0.55651 3.83636,1.12205 2.36058,1.38487 9.78774,6.03665 16.50478,10.33729 6.71702,4.30061 12.54252,7.61678 12.94553,7.36924 0.40303,-0.24753 0.73277,-12.07511 0.73277,-26.28349 0,-18.479807 -0.31278,-25.833438 -1.09881,-25.833438 -0.60434,0 -8.02376,4.396602 -16.4876,9.770233 -8.46382,5.373622 -15.70003,9.770225 -16.08049,9.770225 -0.38044,0 -0.53559,-0.468381 -0.34478,-1.040854 0.19084,-0.572462 7.81161,-5.798683 16.93507,-11.613817 16.5881,-10.573002 16.5881,-10.573002 16.86903,-19.476642 0.2809,-8.903628 0.2809,-8.903628 -23.20429,-8.903628 -23.4852,0 -23.4852,0 -23.4852,16.609371 0,9.135172 -0.37285,16.609373 -0.82854,16.609373 -0.45571,0 -1.11519,-4.684804 -1.46554,-10.410706 -0.35036,-5.725902 -0.63698,-13.200122 -0.63698,-16.609373 0,-6.198665 0,-6.198665 -23.44854,-6.198665 -23.44853,0 -23.44853,0 -23.44853,8.670984 0,8.670957 0,8.670957 17.09788,19.607412 9.40384,6.015055 17.09789,11.36145 17.09789,11.880882 0,0.543463 -0.91891,0.452619 -2.1645,-0.213997 -1.1905,-0.637135 -8.69792,-5.269041 -16.68318,-10.293116 -7.98527,-5.024084 -14.70528,-9.134701 -14.93337,-9.134701 -0.22811,0 -0.41472,12.137699 -0.41472,26.972637 0,23.32435 0.19418,26.89814 1.43562,26.42175 0.78957,-0.30298 8.02761,-4.74663 16.08455,-9.87474 8.05693,-5.12812 15.10496,-9.32385 15.66229,-9.32385 0.55731,0 0.99445,0.32973 0.97138,0.73276 -0.0231,0.40303 -7.70493,5.56901 -17.07079,11.48001 -17.02885,10.74725 -17.02885,10.74725 -17.05595,19.62185 -0.0152,4.88105 0.27376,9.1755 0.64151,9.54325 0.36773,0.36772 11.02948,0.55091 23.69279,0.40706 23.02417,-0.26149 23.02417,-0.26149 23.18695,-15.89385 z m -5.82206,-27.47945 c -0.38025,-0.38025 -0.69136,-3.16811 -0.69136,-6.19526 0,-3.027138 0.5276,-6.031484 1.17243,-6.676322 0.64484,-0.644838 3.44878,-1.172415 6.23101,-1.172415 3.17061,0 5.487,0.516198 6.20646,1.383094 0.67701,0.81575 1.02666,3.72138 0.8524,7.083413 -0.29547,5.70031 -0.29547,5.70031 -6.68753,5.98459 -3.51561,0.15631 -6.70314,-0.027 -7.08341,-0.4071 z m -178.28822,25.85014 c 0.19691,-12.35493 0.58901,-16.88012 1.48861,-17.1793 0.94526,-0.31438 1.22127,3.37285 1.22127,16.31529 0,13.64701 0.25849,16.82066 1.4059,17.26096 0.77326,0.29673 3.83745,0.0347 6.80933,-0.58225 2.97188,-0.61695 8.16474,-2.49205 11.53966,-4.16684 3.75698,-1.86442 8.69328,-5.58904 12.7311,-9.60608 3.62718,-3.60854 6.5949,-6.98758 6.5949,-7.50901 0,-0.52142 -5.6986,-4.53832 -12.66354,-8.92646 -6.96492,-4.38815 -12.92629,-8.40361 -13.24745,-8.92326 -0.32116,-0.51966 -0.0579,-0.94482 0.58489,-0.94482 0.64287,0 6.73728,3.51728 13.54314,7.81617 6.80584,4.2989 12.62674,7.81618 12.93533,7.81618 0.30857,0 1.49118,-2.16214 2.62799,-4.80477 1.13684,-2.64263 2.47255,-7.66876 2.96827,-11.16917 0.52986,-3.7414 0.55048,-9.158413 0.0501,-13.143757 -0.46817,-3.72864 -1.59605,-8.704785 -2.50637,-11.05809 -0.91032,-2.353295 -1.97099,-4.63875 -2.35706,-5.078745 -0.38607,-0.440023 -6.33534,2.79199 -13.22059,7.182257 -6.88526,4.390267 -13.09816,8.20467 -13.80645,8.476468 -0.70825,0.271816 -1.28777,0.05656 -1.28777,-0.478243 0,-0.534837 5.9354,-4.799708 13.18977,-9.477498 7.25441,-4.677809 13.18981,-8.846245 13.18981,-9.263218 0,-0.416973 -1.70882,-2.903933 -3.79738,-5.526603 -2.08857,-2.62267 -5.71576,-6.136766 -8.06045,-7.809116 -2.34465,-1.67235 -5.74828,-3.801166 -7.56359,-4.730716 -1.8153,-0.929532 -5.33258,-2.265865 -7.81617,-2.969643 -2.4836,-0.703756 -6.16434,-1.562551 -8.17946,-1.908463 -3.66383,-0.628883 -3.66383,-0.628883 -3.66383,17.001776 0,15.020363 -0.21698,17.630664 -1.46555,17.630664 -1.24841,0 -1.46552,-2.605389 -1.46552,-17.586383 0,-16.103112 -0.14417,-17.585194 -1.7098,-17.571953 -0.94038,0.0075 -4.46218,0.663369 -7.82619,1.456529 -3.36403,0.793143 -8.84486,2.819386 -12.17962,4.502776 -3.49893,1.76625 -8.65974,5.657232 -12.20274,9.200232 -3.37675,3.376774 -6.13957,6.639747 -6.13957,7.251088 0,0.611332 6.15524,5.105953 13.67831,9.988039 7.52307,4.882095 13.67831,9.274352 13.67831,9.76057 0,0.499777 -0.77973,0.466724 -1.79384,-0.07608 -0.98664,-0.528021 -5.49315,-3.245466 -10.01449,-6.038747 -4.52133,-2.79331 -10.15595,-6.400748 -12.52136,-8.01657 -4.15987,-2.841617 -4.34532,-2.876961 -5.66227,-1.079035 -0.74885,1.022356 -2.27212,4.854208 -3.38503,8.515242 -1.63947,5.393175 -1.93172,8.359858 -1.53988,15.632369 0.26599,4.93676 1.18319,11.18188 2.03825,13.87802 0.85504,2.69617 2.1675,5.74023 2.91653,6.7646 1.29613,1.77257 2.00305,1.45322 14.63602,-6.61186 7.30074,-4.66092 13.73579,-8.47439 14.30008,-8.47439 0.56429,0 1.00594,0.32973 0.98144,0.73276 -0.0245,0.40303 -6.17477,4.61803 -13.66722,9.3667 -12.71175,8.05664 -13.5485,8.77244 -12.514,10.70544 0.60977,1.13933 3.29007,4.19627 5.95624,6.79321 2.66619,2.59695 7.44899,6.03488 10.62847,7.63988 3.17948,1.60499 8.07831,3.53695 10.88629,4.29325 2.80798,0.7563 6.52393,1.40403 8.25767,1.43939 3.15225,0.0643 3.15225,0.0643 3.41959,-16.70885 z m -2.47366,-25.32273 c -0.97017,-0.57795 -2.19908,-2.19533 -2.73094,-3.59417 -0.66422,-1.74707 -0.62102,-3.3785 0.13792,-5.210956 0.60773,-1.467168 2.44655,-3.223302 4.08629,-3.902494 2.47024,-1.023205 3.41367,-0.992245 5.50327,0.180586 1.40932,0.791022 2.92724,2.828644 3.44057,4.618509 0.75165,2.620905 0.56215,3.682525 -1.04286,5.841945 -1.21683,1.63716 -3.03746,2.72978 -4.79589,2.87818 -1.55897,0.13146 -3.62826,-0.23367 -4.59844,-0.81164 z"
       id="path557" />
  </g>
</svg>
