<?xml version="1.0" encoding="UTF-8" standalone="no"?>
<!-- Created with Inkscape (http://www.inkscape.org/) -->

<svg xmlns="http://www.w3.org/2000/svg" width="527" height="507" viewBox="0 0 527 507" fill="none">
  <path d="M157.718 483.686C157.718 460.786 157.718 460.786 153.077 460.187C150.525 459.858 145.862 458.757 142.715 457.741C139.568 456.725 134.578 454.44 131.625 452.662C128.673 450.885 123.716 446.722 120.61 443.413C114.963 437.396 114.963 437.396 91.8869 451.962C79.195 459.973 68.2765 466.528 67.6236 466.528C66.8107 466.528 66.8875 466.106 67.8672 465.189C68.654 464.453 79.0836 457.591 91.044 449.94C103.004 442.289 112.986 435.713 113.225 435.326C113.465 434.938 112.546 431.861 111.183 428.487C109.82 425.114 108.258 419.48 107.711 415.968C107.02 411.531 107.04 407.408 107.777 402.456C108.36 398.537 109.945 392.824 111.3 389.761C113.623 384.509 113.665 384.121 112.048 382.934C111.104 382.242 100.761 375.65 89.0619 368.285C77.363 360.92 67.4706 354.402 67.0789 353.8C66.6873 353.198 66.147 341.944 65.8783 328.791C65.3898 304.877 65.3898 304.877 41.6661 305.192C24.0516 305.426 17.573 305.202 16.5078 304.317C15.4684 303.454 15.0731 301.005 15.0731 295.43C15.0731 291.196 14.7835 287.733 14.4295 287.733C14.0756 287.733 9.56904 290.426 4.41505 293.718C-0.73893 297.01 -8.34422 301.889 -12.4856 304.561C-16.6269 307.233 -20.5839 309.227 -21.2788 308.993C-21.9737 308.759 -17.4862 305.292 -11.3065 301.289C-5.12683 297.286 3.34279 291.858 7.51485 289.227C15.1004 284.444 15.1004 284.444 14.8425 254.229C14.5846 224.014 14.5846 224.014 -3.49004 212.397C-13.4311 206.007 -21.7347 200.27 -21.9425 199.646C-22.1695 198.965 -21.7115 198.746 -20.796 199.098C-19.9576 199.419 -12.7531 203.823 -4.78605 208.884C3.18101 213.945 10.6598 218.588 11.8336 219.202C13.0073 219.816 14.1599 220.319 14.3948 220.319C14.6298 220.319 15.0257 216.801 15.2746 212.501C15.5235 208.201 16.0091 204.402 16.3537 204.057C16.6984 203.712 27.8725 203.383 41.1851 203.325C65.3898 203.221 65.3898 203.221 65.8783 179.119C66.147 165.863 66.5866 154.802 66.8553 154.539C67.124 154.277 77.456 147.614 89.8153 139.734C102.175 131.854 112.605 125.097 112.995 124.72C113.384 124.342 112.579 121.25 111.204 117.847C109.83 114.444 108.258 108.787 107.711 105.275C107.011 100.778 107.043 96.7011 107.818 91.4884C108.423 87.4178 110.006 81.7117 111.335 78.8082C112.665 75.9047 113.752 73.4107 113.752 73.266C113.752 73.1212 104.19 66.9596 92.5021 59.5733C80.8145 52.187 70.3848 45.3239 69.325 44.3221C68.2652 43.3202 67.8748 42.5005 68.4574 42.5005C69.0401 42.5005 78.9202 48.4784 90.4133 55.7847C101.906 63.0911 112.064 69.4733 112.985 69.9673C114.327 70.6871 116.086 69.4164 121.834 63.5744C127.145 58.176 130.859 55.3959 136.139 52.8657C140.269 50.8864 146.303 48.959 150.477 48.2857C157.684 47.123 157.684 47.123 157.946 23.5615C158.111 8.6794 158.567 0 159.184 0C159.801 0 160.257 8.66785 160.422 23.527C160.683 47.0541 160.683 47.0541 167.261 48.257C170.879 48.9186 177.112 51.0291 181.111 52.9469C186.502 55.5318 190.222 58.2965 195.491 63.634C199.4 67.594 202.96 70.8341 203.401 70.8341C203.843 70.8341 214.274 64.459 226.582 56.6673C238.889 48.8755 249.961 42.5005 251.186 42.5005C252.411 42.5005 261.424 47.603 271.215 53.8393C281.006 60.0757 289.534 65.3764 290.165 65.6187C290.965 65.9257 291.453 63.6457 291.774 58.098C292.085 52.7206 292.682 49.8537 293.612 49.2646C294.37 48.785 305.424 48.3858 318.177 48.3776C341.364 48.3624 341.364 48.3624 341.626 24.1813C341.791 8.886 342.246 0 342.864 0C343.482 0 343.937 8.886 344.102 24.1813C344.364 48.3626 344.364 48.3626 365.719 48.3626C377.464 48.3626 388.448 48.6374 390.128 48.9732C393.181 49.5839 393.181 49.5839 393.196 56.5451C393.204 60.3739 393.588 64.1014 394.048 64.8286C394.662 65.7963 395.378 65.8855 396.72 65.1611C397.729 64.6168 406.212 59.2955 415.571 53.336C424.931 47.3764 433.284 42.5235 434.135 42.5517C435.269 42.5893 435.066 43.045 433.374 44.2615C432.105 45.1737 423.312 50.9035 413.833 56.9944C404.355 63.0854 396.037 68.3863 395.349 68.7744C394.398 69.3106 393.967 76.1929 393.553 97.4461C393.253 112.827 393.383 126.081 393.84 126.899C394.298 127.717 403.46 133.943 414.2 140.734C424.94 147.524 434.277 153.784 434.948 154.645C435.847 155.796 436.17 162.337 436.17 179.426C436.17 202.644 436.17 202.644 439.834 203.256C441.849 203.593 445.915 204.531 448.871 205.339C451.826 206.148 456.663 208.165 459.618 209.821C462.574 211.477 468.072 216.002 471.837 219.877C478.682 226.921 478.682 226.921 501.588 212.384C514.186 204.389 525.153 197.847 525.958 197.847C526.956 197.847 527.105 198.165 526.425 198.846C525.876 199.395 519.742 203.474 512.795 207.911C505.849 212.348 496.697 218.164 492.46 220.835C488.222 223.506 483.683 226.576 482.374 227.657C479.993 229.622 479.993 229.622 482.603 237.397C484.653 243.505 485.217 247.063 485.233 253.995C485.25 260.969 484.717 264.411 482.695 270.411C481.287 274.587 480.136 278.398 480.136 278.88C480.136 279.361 490.261 286.231 502.638 294.145C515.013 302.06 525.39 308.94 525.695 309.435C526.001 309.93 526.048 310.538 525.799 310.787C525.551 311.035 514.915 304.631 502.164 296.555C489.413 288.479 478.602 281.871 478.141 281.871C477.679 281.871 476.907 282.576 476.425 283.438C475.942 284.3 473.03 287.554 469.953 290.669C466.482 294.183 461.66 297.702 457.245 299.943C452.771 302.213 447.54 303.962 443.15 304.653C436.17 305.752 436.17 305.752 436.155 329.228C436.147 342.141 435.817 353.175 435.422 353.749C435.027 354.323 426.131 360.215 415.652 366.843C405.174 373.471 395.941 379.456 395.135 380.143C393.894 381.2 393.669 385.777 393.669 409.997C393.669 438.602 393.669 438.602 412.233 450.52C422.442 457.075 431.815 463.181 433.061 464.09C434.307 464.999 435.096 465.973 434.815 466.254C434.534 466.535 432.196 465.532 429.619 464.024C427.042 462.516 418.149 456.967 409.856 451.692C401.563 446.418 394.436 442.103 394.018 442.103C393.599 442.103 393.13 445.95 392.974 450.651C392.692 459.2 392.692 459.2 368.511 459.462C344.33 459.723 344.33 459.723 344.33 483.155C344.33 503.331 344.126 506.586 342.864 506.586C341.602 506.586 341.398 503.329 341.398 483.137C341.398 459.689 341.398 459.689 317.657 459.689C300.494 459.689 293.59 459.364 292.743 458.517C292.045 457.819 291.57 454.456 291.57 450.212C291.57 446.021 291.16 443.08 290.575 443.08C290.028 443.08 281.296 448.355 271.172 454.804C261.049 461.252 252.009 466.528 251.086 466.528C250.162 466.528 239.056 459.933 226.405 451.873C213.755 443.812 202.907 437.227 202.3 437.238C201.693 437.25 199.938 439.037 198.4 441.21C196.862 443.383 193.345 446.959 190.584 449.157C187.823 451.354 182.877 454.38 179.594 455.88C176.311 457.38 170.706 459.115 167.137 459.737C160.649 460.867 160.649 460.867 160.649 483.726C160.649 503.395 160.445 506.586 159.184 506.586C157.923 506.586 157.718 503.39 157.718 483.686ZM270.409 452.729C280.704 446.214 289.787 440.169 290.593 439.295C291.851 437.932 291.99 433.618 291.57 408.912C291.082 380.118 291.082 380.118 273.984 369.133C264.58 363.092 255.516 357.405 253.841 356.496C250.796 354.843 250.796 354.843 227.735 369.407C214.596 377.704 204.662 384.6 204.646 385.435C204.63 386.241 205.592 389.319 206.785 392.274C208.609 396.793 208.953 399.514 208.946 409.372C208.938 419.869 208.663 421.76 206.309 427.433C204.103 432.749 203.892 433.982 204.997 435.087C205.722 435.811 216.154 442.709 228.181 450.414C240.207 458.12 250.417 464.458 250.868 464.499C251.32 464.54 260.113 459.244 270.409 452.729ZM157.938 440.693C158.133 428.73 158.536 424.079 159.405 423.79C160.313 423.488 160.667 427.483 160.87 440.319C161.138 457.246 161.138 457.246 164.381 457.558C166.164 457.729 170.287 456.969 173.542 455.87C176.798 454.77 181.592 452.504 184.195 450.833C186.799 449.163 191.359 445.171 194.33 441.962C197.3 438.754 199.729 435.824 199.728 435.452C199.727 435.08 194.253 431.33 187.565 427.119C180.877 422.909 174.889 418.842 174.258 418.082C173.461 417.122 173.439 416.7 174.185 416.7C174.776 416.7 180.818 420.244 187.611 424.576C194.405 428.908 200.525 432.237 201.211 431.973C201.897 431.71 203.177 429.329 204.057 426.681C204.936 424.034 206.084 419.204 206.609 415.947C207.241 412.02 207.225 407.646 206.561 402.963C206.01 399.079 204.712 393.986 203.677 391.646C202.641 389.305 201.308 387.389 200.715 387.389C200.121 387.389 194.452 390.673 188.116 394.687C181.78 398.701 175.866 402.266 174.973 402.608C174.081 402.951 173.351 402.823 173.351 402.326C173.351 401.828 179.07 397.775 186.061 393.32C193.051 388.865 199.018 384.82 199.32 384.332C199.622 383.843 198.274 381.271 196.325 378.616C194.348 375.922 189.89 371.867 186.241 369.443C182.644 367.054 176.967 364.178 173.626 363.054C170.284 361.93 165.998 361.01 164.1 361.01C160.649 361.01 160.649 361.01 160.649 378.108C160.649 392.654 160.431 395.205 159.184 395.205C157.937 395.205 157.718 392.654 157.718 378.108C157.718 361.01 157.718 361.01 153.913 361.01C151.82 361.01 147.248 361.893 143.752 362.973C140.257 364.053 134.722 366.722 131.453 368.905C128.184 371.088 123.746 374.931 121.591 377.445C119.436 379.959 117.677 382.455 117.682 382.993C117.688 383.53 123.839 387.899 131.354 392.701C138.869 397.504 145.017 401.79 145.017 402.227C145.017 402.664 144.687 403.002 144.284 402.977C143.881 402.953 137.396 399.025 129.873 394.25C117.486 386.386 116.075 385.722 114.929 387.211C114.233 388.115 112.754 391.847 111.642 395.503C110.009 400.877 109.703 403.969 110.047 411.624C110.366 418.73 111.073 422.561 112.878 426.959C114.438 430.762 115.819 432.782 116.809 432.71C117.648 432.65 123.926 429.022 130.76 424.65C137.594 420.277 143.598 416.7 144.101 416.7C144.605 416.7 145.01 417.03 145.002 417.433C144.992 417.836 141.146 420.653 136.453 423.694C131.759 426.735 125.609 430.621 122.786 432.33C117.652 435.436 117.652 435.436 119.366 438.387C120.309 440.01 123.215 443.267 125.824 445.626C128.433 447.984 133.709 451.46 137.548 453.351C141.563 455.328 147.019 457.122 150.391 457.574C153.615 458.007 156.572 458.099 156.961 457.779C157.35 457.46 157.79 449.771 157.938 440.693ZM153.881 414.126C152.767 412.71 151.856 410.702 151.856 409.665C151.856 408.627 152.279 406.988 152.796 406.022C153.313 405.057 155.099 403.702 156.766 403.011C159.445 401.902 160.101 401.982 162.421 403.707C164.299 405.103 165.134 406.701 165.355 409.321C165.561 411.762 165.103 413.603 163.982 414.842C162.982 415.947 161.005 416.7 159.103 416.7C156.813 416.7 155.332 415.97 153.881 414.126ZM341.68 443.08C341.566 435.825 341.695 428.461 341.968 426.714C342.241 424.968 342.873 423.539 343.373 423.539C343.887 423.539 344.399 430.652 344.55 439.904C344.818 456.269 344.818 456.269 368.022 456.531C391.227 456.793 391.227 456.793 391.227 448.622C391.227 442.047 390.893 440.166 389.517 438.993C388.576 438.19 381.327 433.447 373.407 428.451C365.487 423.456 358.508 418.768 357.899 418.034C357.123 417.1 357.11 416.7 357.855 416.7C358.44 416.7 365.828 421.097 374.274 426.47C382.719 431.844 389.989 436.24 390.428 436.24C390.867 436.24 391.227 424.37 391.227 409.861C391.227 394.692 390.849 383.481 390.339 383.481C389.851 383.481 382.512 387.878 374.032 393.251C365.551 398.625 358.22 403.022 357.741 403.022C357.261 403.022 357.017 402.576 357.198 402.032C357.379 401.488 365 396.294 374.133 390.492C390.738 379.941 390.738 379.941 391.017 369.969C391.295 359.997 391.295 359.997 368.057 360.259C344.818 360.521 344.818 360.521 344.551 377.863C344.405 387.402 343.92 395.205 343.473 395.205C343.027 395.205 342.378 391.842 342.03 387.73C341.683 383.619 341.399 375.705 341.399 370.144C341.399 360.033 341.399 360.033 317.95 360.033C294.502 360.033 294.502 360.033 294.502 369.713C294.502 379.393 294.502 379.393 311.599 390.348C321.003 396.373 328.697 401.69 328.697 402.162C328.697 402.635 328.447 403.022 328.142 403.022C327.837 403.022 320.569 398.625 311.992 393.251C303.415 387.878 295.971 383.481 295.45 383.481C294.86 383.481 294.502 393.464 294.502 409.861C294.502 424.37 294.876 436.24 295.335 436.24C295.793 436.24 303.09 431.844 311.551 426.47C320.012 421.097 327.367 416.7 327.897 416.7C328.427 416.7 328.714 417.12 328.534 417.634C328.355 418.148 320.735 423.328 311.599 429.146C294.99 439.724 294.99 439.724 294.7 446.928C294.54 450.891 294.64 454.731 294.92 455.463C295.335 456.544 299.781 456.744 318.659 456.531C341.887 456.269 341.887 456.269 341.68 443.08ZM336.582 416.294C335.905 415.478 335.555 412.573 335.729 409.21C336.025 403.51 336.025 403.51 342.864 403.51C349.703 403.51 349.703 403.51 349.998 409.772C350.203 414.12 349.904 416.28 349.021 416.84C348.322 417.284 345.495 417.654 342.739 417.662C339.595 417.672 337.302 417.162 336.582 416.294ZM225.256 368.299C236.741 360.938 246.908 354.423 247.849 353.82C249.4 352.825 249.558 350.526 249.558 329.021C249.558 305.319 249.558 305.319 246.362 305.319C244.604 305.319 240.224 304.504 236.628 303.507C233.032 302.51 227.612 300.201 224.582 298.377C221.553 296.553 216.495 292.313 213.344 288.954C210.192 285.596 207.096 282.848 206.463 282.848C205.831 282.848 195.256 289.278 182.964 297.136C160.615 311.425 160.615 311.425 160.876 334.48C161.138 357.536 161.138 357.536 169.633 359.709C174.306 360.904 179.582 362.616 181.358 363.515C183.133 364.413 186.879 366.896 189.681 369.033C192.482 371.169 196.427 375.084 198.447 377.732C200.466 380.38 202.625 382.352 203.245 382.114C203.865 381.876 213.77 375.659 225.256 368.299ZM121.901 374.199C127.455 368.554 130.787 366.097 136.406 363.5C140.419 361.647 146.526 359.672 149.977 359.112C153.429 358.552 156.59 358.09 157.003 358.086C157.415 358.082 157.635 347.47 157.491 334.504C157.23 310.93 157.23 310.93 137.689 298.476C126.942 291.626 117.819 286.213 117.416 286.446C117.013 286.68 116.683 290.755 116.683 295.502C116.683 302.471 116.386 304.248 115.138 304.726C114.288 305.053 103.516 305.319 91.2009 305.319C68.8093 305.319 68.8093 305.319 68.8093 329.023C68.8093 352.727 68.8093 352.727 91.0365 367.045C103.262 374.92 113.585 381.4 113.977 381.445C114.37 381.49 117.935 378.23 121.901 374.199ZM291.57 371.893C291.57 369.281 291.85 365.105 292.192 362.612C292.813 358.079 292.813 358.079 317.048 358.079C330.377 358.079 341.419 357.749 341.585 357.346C341.751 356.943 341.667 346.336 341.398 333.775C340.91 310.936 340.91 310.936 323.324 299.736C313.651 293.577 303.208 286.974 300.118 285.064C294.499 281.591 294.499 281.591 288.654 287.969C285.44 291.477 280.602 295.765 277.902 297.497C275.203 299.229 269.684 301.697 265.636 302.983C261.589 304.268 256.975 305.319 255.383 305.319C252.489 305.319 252.489 305.319 252.489 328.617C252.489 349.575 252.661 352.066 254.199 353.431C255.14 354.265 263.595 359.829 272.99 365.795C282.384 371.761 290.408 376.642 290.821 376.642C291.233 376.642 291.57 374.505 291.57 371.893ZM413.868 365.286C423.716 359.04 432.238 353.355 432.807 352.654C433.472 351.833 433.821 343.27 433.784 328.661C433.727 305.943 433.727 305.943 426.594 304.739C422.595 304.064 416.176 301.975 411.987 299.986C406.246 297.259 402.884 294.758 397.48 289.194C390.445 281.951 390.445 281.951 367.37 296.68C344.295 311.409 344.295 311.409 344.556 334.5C344.818 357.59 344.818 357.59 368.999 357.851C393.181 358.113 393.181 358.113 393.181 366.726C393.181 371.463 393.474 375.632 393.832 375.991C394.19 376.349 394.816 376.642 395.223 376.642C395.63 376.642 404.021 371.532 413.868 365.286ZM180.108 296.159C191.378 288.971 201.743 282.257 203.141 281.238C205.682 279.387 205.682 279.387 203.228 273.837C201.878 270.785 200.378 265.078 199.893 261.157C199.36 256.84 199.372 251.353 199.925 247.252C200.426 243.527 201.926 237.811 203.257 234.551C205.418 229.256 205.512 228.519 204.132 227.646C203.283 227.109 193.042 220.607 181.375 213.199C169.435 205.617 159.457 199.906 158.551 200.136C157.665 200.36 148.872 205.704 139.01 212.012C129.149 218.321 120.091 224.099 118.882 224.854C116.687 226.223 116.683 226.275 116.683 253.452C116.683 277.977 116.853 280.873 118.393 282.654C119.334 283.741 128.843 290.165 139.526 296.929C150.209 303.693 159.099 309.228 159.283 309.228C159.466 309.228 168.838 303.347 180.108 296.159ZM361.24 297.839C371.016 291.576 381.322 284.938 384.143 283.089C386.964 281.24 389.273 279.474 389.273 279.166C389.273 278.857 388.072 275.712 386.605 272.177C384.222 266.434 383.94 264.554 383.956 254.514C383.971 245.17 384.351 242.292 386.22 237.416C387.455 234.192 388.673 230.884 388.926 230.066C389.255 228.997 383.204 224.664 367.449 214.687C355.384 207.047 344.815 200.528 343.961 200.2C343.008 199.835 338.917 201.801 333.355 205.297C328.375 208.428 317.926 215.107 310.134 220.139C302.342 225.172 296.062 229.579 296.178 229.933C296.294 230.287 297.503 233.807 298.864 237.754C300.86 243.538 301.336 246.762 301.315 254.364C301.295 261.854 300.793 265.204 298.876 270.635C297.548 274.397 296.35 277.883 296.214 278.382C296.078 278.881 301.683 282.97 308.668 287.467C315.654 291.965 326.171 298.701 332.039 302.436C337.907 306.171 342.879 309.228 343.088 309.228C343.296 309.228 351.465 304.103 361.24 297.839ZM249.916 285.862C250.013 273.216 250.36 268.743 251.268 268.439C252.215 268.122 252.489 271.997 252.489 285.698C252.489 295.415 252.629 303.365 252.799 303.365C252.969 303.365 255.672 302.891 258.805 302.312C261.939 301.733 266.901 300.198 269.833 298.902C272.764 297.605 277.335 294.95 279.99 293.001C282.645 291.052 286.336 287.468 288.194 285.035C290.051 282.603 291.567 280.346 291.562 280.021C291.556 279.695 285.632 275.691 278.393 271.124C271.155 266.556 265.223 262.489 265.212 262.086C265.2 261.683 265.652 261.353 266.215 261.353C266.779 261.353 272.423 264.638 278.759 268.651C285.095 272.665 291.012 276.231 291.909 276.575C293.149 277.051 293.986 276.182 295.405 272.941C296.431 270.598 297.806 265.92 298.462 262.545C299.117 259.17 299.416 253.894 299.126 250.821C298.837 247.747 297.616 242.265 296.413 238.638C295.011 234.408 293.702 232.043 292.764 232.043C291.96 232.043 285.734 235.56 278.928 239.859C272.122 244.158 266.247 247.675 265.872 247.675C265.497 247.675 265.191 247.285 265.191 246.807C265.191 246.33 271.126 242.112 278.381 237.434C285.635 232.756 291.57 228.469 291.57 227.906C291.57 227.344 288.36 223.725 284.437 219.865C278.775 214.294 275.798 212.22 270 209.806C265.983 208.134 260.41 206.462 257.616 206.091C252.536 205.418 252.536 205.418 252.268 222.883C252.103 233.696 251.629 240.347 251.024 240.347C250.419 240.347 249.945 233.738 249.78 223.005C249.513 205.663 249.513 205.663 246.219 205.663C244.407 205.663 239.927 206.589 236.262 207.721C232.597 208.853 227.385 211.196 224.679 212.928C221.973 214.66 217.791 218.144 215.385 220.669C212.98 223.195 210.647 225.912 210.202 226.707C209.577 227.825 212.509 230.175 223.125 237.064C230.678 241.966 236.857 246.358 236.857 246.825C236.857 247.293 236.62 247.675 236.329 247.675C236.039 247.675 229.841 243.908 222.555 239.303C215.27 234.698 208.735 231.15 208.034 231.419C207.334 231.688 205.759 234.467 204.534 237.593C202.718 242.232 202.297 245.256 202.246 254.026C202.194 263.063 202.553 265.748 204.504 270.9C205.779 274.27 207.215 277.27 207.695 277.566C208.174 277.862 214.47 274.336 221.686 269.729C228.901 265.122 235.267 261.353 235.831 261.353C236.395 261.353 236.857 261.684 236.857 262.088C236.857 262.492 231.691 266.1 225.377 270.106C219.063 274.112 212.917 278.125 211.719 279.023C209.54 280.655 209.54 280.655 212.35 284.534C213.895 286.667 217.074 289.967 219.413 291.866C221.753 293.765 226.042 296.511 228.945 297.968C231.848 299.425 236.904 301.209 240.181 301.931C243.458 302.654 246.959 303.162 247.962 303.061C249.658 302.89 249.794 301.699 249.916 285.862ZM245.721 258.779C244.607 257.363 243.696 255.145 243.696 253.85C243.696 252.554 244.775 250.415 246.094 249.096C247.413 247.777 249.502 246.712 250.735 246.729C251.969 246.746 253.73 247.332 254.649 248.03C255.569 248.728 256.767 250.473 257.312 251.907C257.94 253.559 257.971 255.387 257.397 256.897C256.899 258.208 255.62 259.747 254.555 260.317C253.489 260.887 251.522 261.353 250.182 261.353C248.714 261.353 246.941 260.33 245.721 258.779ZM433.994 285.535C434.155 275.08 434.64 268.193 435.215 268.193C435.801 268.193 436.17 274.983 436.17 285.779C436.17 299.204 436.459 303.362 437.391 303.351C438.063 303.343 441.365 302.688 444.729 301.894C448.093 301.101 453.574 299.075 456.908 297.392C460.407 295.625 465.568 291.734 469.111 288.191C472.488 284.815 475.247 281.462 475.242 280.74C475.236 280.019 469.72 275.93 462.981 271.655C456.243 267.379 450.257 263.312 449.68 262.617C448.926 261.708 448.948 261.353 449.759 261.353C450.378 261.353 456.462 264.871 463.279 269.17C470.095 273.469 476.205 276.986 476.857 276.986C477.508 276.986 479.004 274.458 480.181 271.368C481.564 267.737 482.498 262.592 482.822 256.819C483.229 249.546 482.944 246.644 481.285 241.187C480.164 237.501 478.669 233.695 477.961 232.729C476.767 231.099 475.735 231.571 463.542 239.324C456.319 243.917 450.063 247.675 449.64 247.675C449.217 247.675 448.871 247.266 448.871 246.765C448.871 246.265 453.608 242.857 459.397 239.193C465.186 235.529 471.214 231.59 472.793 230.439C475.663 228.347 475.663 228.347 472.77 224.156C471.179 221.851 467.025 217.868 463.54 215.304C460.054 212.74 454.846 209.741 451.966 208.639C449.087 207.537 444.354 206.356 441.45 206.015C436.17 205.394 436.17 205.394 436.17 222.569C436.17 232.692 435.778 239.986 435.215 240.333C434.612 240.707 434.163 234.537 433.994 223.537C433.727 206.152 433.727 206.152 430.532 205.844C428.774 205.675 424.836 206.263 421.78 207.151C418.724 208.04 414.055 209.866 411.404 211.209C408.753 212.552 403.788 216.38 400.371 219.714C396.954 223.048 394.158 226.486 394.158 227.353C394.158 228.305 399.376 232.294 407.348 237.434C414.602 242.112 420.537 246.33 420.537 246.807C420.537 247.285 420.3 247.675 420.01 247.675C419.719 247.675 413.521 243.908 406.235 239.303C398.95 234.698 392.392 231.159 391.662 231.44C390.932 231.72 389.34 235.158 388.124 239.079C386.539 244.19 385.922 248.562 385.947 254.514C385.967 259.535 386.655 265.026 387.686 268.402C388.624 271.472 390.134 274.865 391.042 275.942C392.666 277.869 392.898 277.769 405.659 269.627C412.791 265.076 419.056 261.353 419.582 261.353C420.107 261.353 420.537 261.687 420.537 262.095C420.537 262.503 415.016 266.336 408.268 270.613C401.519 274.89 395.54 278.94 394.981 279.614C394.252 280.493 394.58 281.835 396.143 284.365C397.342 286.304 400.547 289.649 403.266 291.798C405.985 293.947 410.213 296.7 412.663 297.915C415.113 299.13 419.096 300.62 421.514 301.225C423.933 301.83 426.79 302.516 427.865 302.749C428.94 302.982 430.698 303.106 431.773 303.025C433.637 302.884 433.739 302.08 433.994 285.535ZM430.986 260.268C430.016 259.703 428.787 258.097 428.255 256.698C427.591 254.951 427.634 253.32 428.393 251.487C429.001 250.02 430.747 248.302 432.273 247.67C433.8 247.038 435.965 246.812 437.085 247.167C438.206 247.523 439.777 249.08 440.577 250.627C441.377 252.174 442.032 254.062 442.032 254.823C442.032 255.583 441.12 257.363 440.007 258.779C438.702 260.438 437.052 261.343 435.366 261.324C433.927 261.307 431.956 260.832 430.986 260.268ZM66.0994 285.777C66.2642 275.534 66.7413 269.165 67.3438 269.164C67.9369 269.163 68.5127 275.594 68.8093 285.531C69.2978 301.9 69.2978 301.9 91.7693 301.9C114.241 301.9 114.241 301.9 114.241 292.745C114.241 283.59 114.241 283.59 99.097 273.872C90.7679 268.528 83.2973 263.778 82.4958 263.316C81.6942 262.855 81.3928 262.123 81.8261 261.689C82.2593 261.256 83.7944 261.597 85.2375 262.446C86.6805 263.296 93.5184 267.568 100.433 271.941C107.347 276.313 113.392 279.651 113.867 279.358C114.341 279.064 114.729 267.712 114.729 254.131C114.729 240.549 114.473 229.181 114.16 228.868C113.847 228.555 106.581 232.72 98.0124 238.123C89.4441 243.526 82.1167 247.63 81.7294 247.243C81.342 246.855 81.9037 245.885 82.9776 245.086C84.0515 244.287 91.1588 239.685 98.7716 234.86C106.384 230.036 113.107 225.493 113.711 224.765C114.393 223.944 114.701 220.17 114.525 214.797C114.241 206.152 114.241 206.152 91.5477 205.889C68.8545 205.627 68.8545 205.627 68.5876 222.745C68.4226 233.327 67.9478 239.863 67.3438 239.863C66.7398 239.863 66.2649 233.333 66.0999 222.763C65.8331 205.663 65.8331 205.663 41.882 205.663C17.9308 205.663 17.9308 205.663 18.2117 214.674C18.4926 223.686 18.4927 223.686 35.5697 234.641C44.9621 240.666 52.8027 246.064 52.9933 246.636C53.1839 247.207 53.1026 247.675 52.8127 247.675C52.5228 247.675 44.92 243.059 35.9177 237.416C26.9154 231.774 19.2021 227.158 18.777 227.158C18.352 227.158 18.0042 239.468 18.0042 254.514C18.0042 269.56 18.2074 281.871 18.4559 281.871C18.7043 281.871 26.2261 277.254 35.171 271.612C44.1158 265.97 51.8264 261.353 52.3056 261.353C52.7849 261.353 53.1664 261.683 53.1535 262.086C53.1402 262.489 45.2267 267.856 35.5671 274.013C18.0042 285.206 18.0042 285.206 18.0042 293.146C18.0042 297.513 18.2973 301.379 18.6555 301.737C19.0138 302.095 29.7751 302.388 42.5695 302.388C65.8321 302.388 65.8321 302.388 66.0994 285.777ZM60.6674 260.702C60.3092 260.344 60.0228 257.596 60.0311 254.596C60.0386 251.595 60.4098 248.567 60.8544 247.866C61.4086 246.992 63.4785 246.685 67.4344 246.889C73.2059 247.187 73.2059 247.187 73.493 254.27C73.78 261.353 73.78 261.353 67.5494 261.353C64.1226 261.353 61.0257 261.06 60.6674 260.702ZM213.684 219.09C218.279 214.47 222.949 210.892 227.087 208.821C230.58 207.073 236.076 205.16 239.3 204.57C242.524 203.981 246.159 203.315 247.377 203.092C249.593 202.686 249.593 202.686 249.331 179.067C249.07 155.447 249.07 155.447 225.626 140.542C212.732 132.344 201.925 125.946 201.611 126.325C201.298 126.703 199.372 129.104 197.331 131.661C195.291 134.217 190.709 138.223 187.15 140.563C183.59 142.902 178.635 145.58 176.138 146.512C173.64 147.445 169.243 148.495 166.367 148.846C161.138 149.484 161.138 149.484 161.138 173.416C161.138 197.347 161.138 197.347 183.586 211.764C195.933 219.693 206.169 226.181 206.334 226.181C206.498 226.181 209.806 222.99 213.684 219.09ZM319.203 211.454C331.393 203.702 341.484 196.919 341.627 196.381C341.77 195.844 341.761 185.19 341.608 172.705C341.329 150.006 341.329 150.006 316.694 149.745C292.059 149.484 292.059 149.484 291.778 140.447C291.623 135.476 291.336 131.41 291.139 131.41C290.942 131.41 282.275 136.847 271.88 143.493C252.978 155.576 252.978 155.576 252.716 179.106C252.455 202.637 252.455 202.637 256.136 203.242C258.161 203.575 262.675 204.676 266.168 205.689C269.661 206.701 275.371 209.443 278.858 211.781C282.345 214.118 286.961 218.303 289.117 221.079C291.915 224.683 293.608 226.044 295.037 225.838C296.138 225.68 307.013 219.207 319.203 211.454ZM394.622 222.308C396.098 220.177 399.575 216.684 402.349 214.544C405.122 212.404 410.29 209.297 413.833 207.639C417.375 205.982 422.641 204.359 425.535 204.032C428.429 203.706 431.565 203.045 432.506 202.563C434.059 201.767 434.216 199.64 434.216 179.401C434.216 159.39 434.041 156.964 432.506 155.639C431.565 154.827 422.763 149.043 412.944 142.786C403.125 136.529 394.662 131.41 394.136 131.41C393.581 131.41 393.181 135.287 393.181 140.674C393.181 149.939 393.181 149.939 368.999 150.2C344.818 150.461 344.818 150.461 344.556 173.532C344.345 192.174 344.552 196.816 345.641 197.719C346.381 198.333 356.566 204.988 368.276 212.508C379.985 220.028 390.099 226.181 390.751 226.181C391.404 226.181 393.146 224.438 394.622 222.308ZM136.447 210.896C146.265 204.639 155.068 198.855 156.009 198.043C157.548 196.714 157.718 194.245 157.718 173.289C157.718 150.01 157.718 150.01 155.52 149.609C154.311 149.388 150.684 148.723 147.46 148.131C144.235 147.539 138.74 145.666 135.247 143.968C130.864 141.838 126.712 138.65 121.849 133.68C114.803 126.479 114.803 126.479 97.4239 137.574C87.8655 143.676 77.517 150.295 74.4272 152.282C68.8093 155.895 68.8093 155.895 68.8093 179.169C68.8093 202.443 68.8093 202.443 76.8697 203.07C81.303 203.415 92.0746 203.7 100.807 203.703C116.683 203.709 116.683 203.709 116.683 212.339C116.683 217.086 116.976 221.263 117.335 221.621C117.693 221.979 118.123 222.273 118.29 222.273C118.458 222.273 126.628 217.153 136.447 210.896ZM272.2 140.558C282.854 133.768 291.578 127.723 291.587 127.124C291.597 126.526 291.609 113.335 291.615 97.812C291.623 82.2889 291.504 69.4691 291.354 69.3237C291.205 69.1782 282.302 63.4499 271.571 56.594C260.84 49.7382 251.607 44.1363 251.053 44.1454C250.5 44.1549 240.594 50.2069 229.041 57.5951C217.488 64.9833 207.093 71.6233 205.941 72.3507C203.847 73.6732 203.847 73.6732 206.392 80.3141C208.624 86.137 208.937 88.3991 208.938 98.6792C208.938 109.182 208.665 111.063 206.313 116.73C204.67 120.688 204.032 123.401 204.608 123.977C205.114 124.483 215.325 131.173 227.299 138.844C239.273 146.515 249.916 152.816 250.95 152.847C251.984 152.878 261.547 147.348 272.2 140.558ZM342.05 131.898C342.139 123.3 342.249 115.496 342.294 114.556C342.339 113.615 342.805 112.846 343.33 112.846C343.905 112.846 344.39 119.733 344.551 130.188C344.818 147.53 344.818 147.53 367.778 147.53C390.738 147.53 390.738 147.53 390.987 138.249C391.237 128.967 391.237 128.967 374.45 118.22C365.217 112.309 357.458 106.844 357.207 106.076C356.903 105.146 358.182 105.52 361.044 107.199C363.404 108.583 370.831 113.235 377.548 117.536C384.265 121.836 390.091 125.153 390.494 124.905C390.897 124.658 391.227 112.83 391.227 98.6216C391.227 80.1418 390.914 72.7881 390.128 72.7881C389.523 72.7881 382.104 77.1847 373.64 82.5584C365.176 87.932 357.94 92.3286 357.56 92.3286C357.179 92.3286 357.024 91.8602 357.215 91.2877C357.406 90.7153 365.027 85.4891 374.15 79.6739C390.738 69.1009 390.738 69.1009 391.019 60.1973C391.3 51.2937 391.3 51.2937 367.815 51.2937C344.33 51.2937 344.33 51.2937 344.33 67.903C344.33 77.0382 343.957 84.5124 343.501 84.5124C343.045 84.5124 342.386 79.8276 342.035 74.1017C341.685 68.3758 341.399 60.9016 341.399 57.4923C341.399 51.2937 341.399 51.2937 317.95 51.2937C294.501 51.2937 294.501 51.2937 294.501 59.9646C294.501 68.6356 294.501 68.6356 311.599 79.5721C321.003 85.5871 328.697 90.9335 328.697 91.4529C328.697 91.9964 327.778 91.9056 326.533 91.2389C325.342 90.6018 317.835 85.9699 309.85 80.9458C301.864 75.9217 295.144 71.8111 294.916 71.8111C294.688 71.8111 294.501 83.9488 294.501 98.7838C294.501 122.108 294.696 125.682 295.937 125.206C296.727 124.903 303.965 120.459 312.022 115.331C320.079 110.203 327.127 106.007 327.684 106.007C328.241 106.007 328.678 106.337 328.655 106.74C328.632 107.143 320.95 112.309 311.585 118.22C294.556 128.967 294.556 128.967 294.529 137.842C294.513 142.723 294.802 147.017 295.17 147.385C295.538 147.753 306.2 147.936 318.863 147.792C341.887 147.53 341.887 147.53 342.05 131.898ZM336.228 104.419C335.847 104.038 335.536 101.25 335.536 98.2233C335.536 95.1962 336.064 92.1918 336.709 91.547C337.354 90.9021 340.158 90.3745 342.94 90.3745C346.11 90.3745 348.427 90.8907 349.146 91.7576C349.823 92.5734 350.173 95.479 349.999 98.8411C349.703 104.541 349.703 104.541 343.311 104.826C339.796 104.982 336.608 104.799 336.228 104.419ZM157.939 130.269C158.136 117.914 158.529 113.389 159.428 113.089C160.373 112.775 160.649 116.462 160.649 129.405C160.649 143.052 160.908 146.225 162.055 146.666C162.829 146.962 165.893 146.7 168.865 146.083C171.836 145.466 177.029 143.591 180.404 141.917C184.161 140.052 189.098 136.328 193.135 132.31C196.763 128.702 199.73 125.323 199.73 124.801C199.73 124.28 194.032 120.263 187.067 115.875C180.102 111.487 174.14 107.471 173.819 106.952C173.498 106.432 173.761 106.007 174.404 106.007C175.047 106.007 181.141 109.524 187.947 113.823C194.753 118.122 200.574 121.639 200.883 121.639C201.191 121.639 202.374 119.477 203.511 116.834C204.647 114.192 205.983 109.166 206.479 105.665C207.009 101.924 207.029 96.5069 206.529 92.5216C206.061 88.7929 204.933 83.8168 204.023 81.4635C203.112 79.1102 202.052 76.8247 201.666 76.3847C201.28 75.9447 195.33 79.1767 188.445 83.567C181.56 87.9573 175.347 91.7717 174.639 92.0435C173.93 92.3153 173.351 92.1 173.351 91.5652C173.351 91.0304 179.286 86.7655 186.541 82.0877C193.795 77.4099 199.73 73.2415 199.73 72.8245C199.73 72.4075 198.022 69.9206 195.933 67.2979C193.844 64.6752 190.217 61.1611 187.873 59.4888C185.528 57.8164 182.124 55.6876 180.309 54.7581C178.494 53.8285 174.976 52.4922 172.493 51.7884C170.009 51.0847 166.328 50.2259 164.313 49.88C160.649 49.2511 160.649 49.2511 160.649 66.8817C160.649 81.9021 160.432 84.5124 159.184 84.5124C157.936 84.5124 157.718 81.907 157.718 66.926C157.718 50.8229 157.574 49.3408 156.009 49.3541C155.068 49.3616 151.546 50.0174 148.182 50.8106C144.818 51.6037 139.338 53.63 136.003 55.3134C132.504 57.0796 127.343 60.9706 123.8 64.5136C120.423 67.8904 117.66 71.1534 117.66 71.7647C117.66 72.376 123.816 76.8706 131.339 81.7527C138.862 86.6348 145.017 91.0271 145.017 91.5133C145.017 92.0131 144.237 91.98 143.223 91.4372C142.237 90.9092 137.73 88.1918 133.209 85.3985C128.687 82.6052 123.053 78.9977 120.687 77.3819C116.528 74.5403 116.342 74.5049 115.025 76.3029C114.276 77.3252 112.753 81.1571 111.64 84.8181C110.001 90.2113 109.708 93.178 110.1 100.45C110.366 105.387 111.283 111.632 112.138 114.328C112.994 117.025 114.306 120.069 115.055 121.093C116.351 122.866 117.058 122.546 129.691 114.481C136.992 109.82 143.427 106.007 143.991 106.007C144.555 106.007 144.997 106.337 144.973 106.74C144.948 107.143 138.798 111.358 131.305 116.106C118.594 124.163 117.757 124.879 118.791 126.812C119.401 127.951 122.081 131.008 124.748 133.605C127.414 136.202 132.197 139.64 135.376 141.245C138.556 142.85 143.454 144.782 146.262 145.538C149.07 146.294 152.786 146.942 154.52 146.977C157.672 147.042 157.672 147.042 157.939 130.269ZM155.466 104.946C154.496 104.368 153.267 102.751 152.735 101.352C152.071 99.6047 152.114 97.9733 152.873 96.1408C153.481 94.6737 155.319 92.9175 156.959 92.2383C159.429 91.2151 160.373 91.2461 162.462 92.4189C163.872 93.2099 165.39 95.2476 165.903 97.0374C166.655 99.6583 166.465 100.72 164.86 102.879C163.643 104.517 161.823 105.609 160.064 105.758C158.505 105.889 156.436 105.524 155.466 104.946Z" fill="url(#paint0_linear_192_316)"/>
  <defs>
    <linearGradient id="paint0_linear_192_316" x1="252.421" y1="0" x2="252.421" y2="506.586" gradientUnits="userSpaceOnUse">
      <stop stop-color="#00001C"/>
      <stop offset="1" stop-color="#348793"/>
    </linearGradient>
  </defs>
</svg>
